<svg width="40" height="41" viewBox="0 0 40 41" fill="black" xmlns="http://www.w3.org/2000/svg">
<path d="M34.778 27.6H14.265C13.9246 27.6005 13.5942 27.4853 13.328 27.2732C13.0617 27.0612 12.8756 26.7649 12.8 26.433L9.346 11.385C9.29548 11.1652 9.29518 10.9368 9.34512 10.7168C9.39506 10.4969 9.49396 10.291 9.63446 10.1146C9.77496 9.93815 9.95344 9.79567 10.1566 9.69774C10.3598 9.59981 10.5825 9.54897 10.808 9.54898H38.235C38.4608 9.54851 38.6838 9.59903 38.8874 9.69676C39.0909 9.79449 39.2698 9.93692 39.4106 10.1134C39.5514 10.2899 39.6506 10.4959 39.7007 10.7161C39.7508 10.9363 39.7506 11.1649 39.7 11.385L36.24 26.433C36.1646 26.7644 35.9788 27.0603 35.7132 27.2723C35.4476 27.4843 35.1179 27.5999 34.778 27.6ZM15.459 24.6H33.584L36.351 12.552H12.691L15.459 24.6Z" />
<path d="M17.2 41C16.0632 41 14.9518 40.6629 14.0066 40.0313C13.0613 39.3997 12.3246 38.502 11.8895 37.4517C11.4545 36.4014 11.3407 35.2456 11.5624 34.1306C11.7842 33.0156 12.3317 31.9914 13.1355 31.1875C13.9394 30.3837 14.9636 29.8362 16.0786 29.6144C17.1936 29.3927 18.3494 29.5065 19.3997 29.9415C20.45 30.3766 21.3477 31.1133 21.9793 32.0586C22.6109 33.0038 22.948 34.1152 22.948 35.252C22.9464 36.776 22.3403 38.2371 21.2627 39.3147C20.1851 40.3923 18.724 40.9984 17.2 41ZM17.2 32.505C16.6565 32.505 16.1251 32.6662 15.6732 32.9682C15.2213 33.2702 14.869 33.6994 14.6611 34.2016C14.4531 34.7038 14.3988 35.2564 14.5049 35.7895C14.611 36.3226 14.8728 36.8122 15.2572 37.1965C15.6416 37.5808 16.1314 37.8424 16.6645 37.9483C17.1976 38.0542 17.7502 37.9997 18.2523 37.7915C18.7544 37.5834 19.1835 37.231 19.4854 36.779C19.7872 36.3269 19.9482 35.7955 19.948 35.252C19.9472 34.5235 19.6574 33.8251 19.1422 33.3101C18.627 32.7951 17.9285 32.5055 17.2 32.505Z" />
<path d="M31.842 41C30.7052 41 29.5938 40.6629 28.6486 40.0313C27.7033 39.3997 26.9666 38.502 26.5315 37.4517C26.0965 36.4014 25.9827 35.2456 26.2044 34.1306C26.4262 33.0156 26.9737 31.9914 27.7776 31.1875C28.5814 30.3837 29.6056 29.8362 30.7206 29.6144C31.8356 29.3927 32.9914 29.5065 34.0417 29.9415C35.092 30.3766 35.9897 31.1133 36.6213 32.0586C37.2529 33.0038 37.59 34.1152 37.59 35.252C37.5884 36.776 36.9823 38.2371 35.9047 39.3147C34.8271 40.3923 33.366 40.9984 31.842 41ZM31.842 32.505C31.2985 32.505 30.7671 32.6662 30.3152 32.9682C29.8633 33.2702 29.511 33.6994 29.3031 34.2016C29.0951 34.7038 29.0408 35.2564 29.1469 35.7895C29.253 36.3226 29.5148 36.8122 29.8992 37.1965C30.2836 37.5808 30.7734 37.8424 31.3065 37.9483C31.8396 38.0542 32.3922 37.9997 32.8943 37.7915C33.3964 37.5834 33.8255 37.231 34.1274 36.779C34.4292 36.3269 34.5902 35.7955 34.59 35.252C34.5892 34.5235 34.2994 33.8251 33.7842 33.3101C33.269 32.7951 32.5705 32.5055 31.842 32.505Z" />
<path d="M10.808 12.549C10.4931 12.549 10.1863 12.4499 9.93087 12.2657C9.67547 12.0816 9.4845 11.8217 9.385 11.523L6.814 3.79999H2.07C1.67217 3.79999 1.29064 3.64195 1.00934 3.36065C0.728035 3.07934 0.57 2.69781 0.57 2.29999C0.57 1.90216 0.728035 1.52063 1.00934 1.23933C1.29064 0.958023 1.67217 0.799988 2.07 0.799988H7.9C8.21486 0.800017 8.52173 0.899125 8.77713 1.08327C9.03253 1.26742 9.2235 1.52726 9.323 1.82599L12.236 10.575C12.3111 10.8004 12.3315 11.0405 12.2957 11.2754C12.2598 11.5103 12.1686 11.7334 12.0297 11.9261C11.8907 12.1189 11.7079 12.2759 11.4964 12.3842C11.2849 12.4925 11.0506 12.549 10.813 12.549H10.808Z"/>
</svg>
