<svg width="10%" height="10%" viewBox="0 0 20 19" fill="currentColor" xmlns="http://www.w3.org/2000/svg">
<path fill-rule="evenodd" clip-rule="evenodd" d="M2 2.53571C2 2.39363 2.05619 2.25737 2.15621 2.15691C2.25623 2.05644 2.39189 2 2.53334 2H4.13335C4.25232 2.00003 4.36786 2.04002 4.4616 2.1136C4.55534 2.18718 4.6219 2.29013 4.65069 2.40607L5.0827 4.14286H17.4668C17.5478 4.14288 17.6278 4.16144 17.7006 4.19713C17.7734 4.23282 17.8371 4.2847 17.887 4.34883C17.9369 4.41296 17.9715 4.48766 17.9884 4.56726C18.0052 4.64686 18.0038 4.72926 17.9841 4.80821L16.3841 11.2368C16.3553 11.3527 16.2888 11.4557 16.195 11.5293C16.1013 11.6028 15.9858 11.6428 15.8668 11.6429H6.26671C6.14774 11.6428 6.0322 11.6028 5.93846 11.5293C5.84472 11.4557 5.77816 11.3527 5.74937 11.2368L3.71735 3.07143H2.53334C2.39189 3.07143 2.25623 3.01499 2.15621 2.91452C2.05619 2.81406 2 2.67779 2 2.53571ZM5.34936 5.21429L5.8827 7.35714H7.33338V5.21429H5.34936ZM8.40006 5.21429V7.35714H10.5334V5.21429H8.40006ZM11.6001 5.21429V7.35714H13.7334V5.21429H11.6001ZM14.8001 5.21429V7.35714H16.2508L16.7841 5.21429H14.8001ZM15.9841 8.42857H14.8001V10.5714H15.4508L15.9841 8.42857ZM13.7334 8.42857H11.6001V10.5714H13.7334V8.42857ZM10.5334 8.42857H8.40006V10.5714H10.5334V8.42857ZM7.33338 8.42857H6.14937L6.68271 10.5714H7.33338V8.42857ZM7.33338 13.7857C7.05048 13.7857 6.77917 13.8986 6.57913 14.0995C6.37909 14.3005 6.26671 14.573 6.26671 14.8571C6.26671 15.1413 6.37909 15.4138 6.57913 15.6148C6.77917 15.8157 7.05048 15.9286 7.33338 15.9286C7.61628 15.9286 7.8876 15.8157 8.08764 15.6148C8.28768 15.4138 8.40006 15.1413 8.40006 14.8571C8.40006 14.573 8.28768 14.3005 8.08764 14.0995C7.8876 13.8986 7.61628 13.7857 7.33338 13.7857ZM5.20003 14.8571C5.20003 14.2888 5.42479 13.7438 5.82487 13.3419C6.22496 12.9401 6.76758 12.7143 7.33338 12.7143C7.89918 12.7143 8.44181 12.9401 8.84189 13.3419C9.24197 13.7438 9.46674 14.2888 9.46674 14.8571C9.46674 15.4255 9.24197 15.9705 8.84189 16.3724C8.44181 16.7742 7.89918 17 7.33338 17C6.76758 17 6.22496 16.7742 5.82487 16.3724C5.42479 15.9705 5.20003 15.4255 5.20003 14.8571ZM14.8001 13.7857C14.5172 13.7857 14.2459 13.8986 14.0459 14.0995C13.8458 14.3005 13.7334 14.573 13.7334 14.8571C13.7334 15.1413 13.8458 15.4138 14.0459 15.6148C14.2459 15.8157 14.5172 15.9286 14.8001 15.9286C15.083 15.9286 15.3543 15.8157 15.5544 15.6148C15.7544 15.4138 15.8668 15.1413 15.8668 14.8571C15.8668 14.573 15.7544 14.3005 15.5544 14.0995C15.3543 13.8986 15.083 13.7857 14.8001 13.7857ZM12.6668 14.8571C12.6668 14.2888 12.8915 13.7438 13.2916 13.3419C13.6917 12.9401 14.2343 12.7143 14.8001 12.7143C15.3659 12.7143 15.9085 12.9401 16.3086 13.3419C16.7087 13.7438 16.9335 14.2888 16.9335 14.8571C16.9335 15.4255 16.7087 15.9705 16.3086 16.3724C15.9085 16.7742 15.3659 17 14.8001 17C14.2343 17 13.6917 16.7742 13.2916 16.3724C12.8915 15.9705 12.6668 15.4255 12.6668 14.8571Z"/>
</svg>
