<svg width="10%" height="10%" viewBox="0 0 20 28" fill="none" xmlns="http://www.w3.org/2000/svg">
<path d="M12.44 23.28L10.37 19.34C10.26 19.13 10.04 19 9.8 19C9.56 19 9.34 19.13 9.23 19.34L7.19 23.22C6.95 23.69 6.84 24.22 6.88 24.75C6.98 26.22 8.16 27.39 9.62 27.48C9.68 27.48 9.74 27.48 9.8 27.48C10.55 27.48 11.26 27.2 11.81 26.68C12.4 26.13 12.73 25.35 12.73 24.55C12.73 24.11 12.63 23.69 12.44 23.29V23.28Z" fill="#004757"/>
<path d="M18.54 0.160004H1.06002C0.590022 0.160004 0.210022 0.540004 0.210022 1.01V2.3C0.210022 2.77 0.590022 3.15 1.06002 3.15H1.87002L7.78002 10.44V16.34C7.78002 16.42 7.82002 16.5 7.90002 16.55C7.94002 16.58 7.99002 16.59 8.03002 16.59C8.07002 16.59 8.10002 16.59 8.14002 16.57L11.69 14.89C11.78 14.85 11.83 14.76 11.83 14.67V10.45L17.74 3.16H18.55C19.02 3.16 19.4 2.78 19.4 2.31V1.02C19.4 0.550004 19.02 0.170004 18.55 0.170004L18.54 0.160004ZM18.9 2.3C18.9 2.5 18.74 2.66 18.54 2.66H1.06002C0.860022 2.66 0.700022 2.5 0.700022 2.3V1.01C0.700022 0.810004 0.860022 0.650004 1.06002 0.650004H18.54C18.74 0.650004 18.9 0.810004 18.9 1.01V2.3Z" fill="#522E4C"/>
</svg>
