<svg width="52" height="44" viewBox="0 0 52 44" fill="black" xmlns="http://www.w3.org/2000/svg">
<path d="M47.5366 3.5404C45.1191 1.1798 41.7791 0 37.5151 0C36.3351 0 35.1308 0.2046 33.9034 0.6136C32.6755 1.0229 31.5332 1.5751 30.4778 2.2698C29.421 2.9643 28.5128 3.6165 27.7509 4.2254C26.9899 4.8345 26.2664 5.4818 25.5813 6.1668C24.8959 5.4818 24.1726 4.8345 23.4115 4.2254C22.6499 3.6165 21.7413 2.9647 20.6847 2.2698C19.6283 1.5748 18.4862 1.023 17.2586 0.6136C16.0311 0.2047 14.827 0 13.647 0C9.3833 0 6.0431 1.1801 3.6259 3.5404C1.2087 5.9005 0 9.1741 0 13.3615C0 14.6368 0.224 15.9506 0.6711 17.3013C1.1182 18.6527 1.6277 19.8044 2.1986 20.7559C2.7694 21.7073 3.4167 22.6351 4.14 23.5393C4.8633 24.4434 5.3919 25.0665 5.7246 25.4091C6.0576 25.7517 6.3194 25.9994 6.5097 26.1518L24.325 43.3393C24.6677 43.6819 25.0864 43.8537 25.5812 43.8537C26.076 43.8537 26.495 43.6819 26.8375 43.3393L44.6245 26.2083C48.9833 21.8503 51.1625 17.5677 51.1625 13.3611C51.1626 9.1734 49.954 5.9001 47.5366 3.5404ZM42.1405 23.525L25.5813 39.4846L8.9938 23.4962C5.4344 19.9377 3.655 16.5588 3.655 13.3611C3.655 11.8196 3.8596 10.4585 4.2686 9.2787C4.6779 8.0987 5.2013 7.161 5.8389 6.4663C6.4766 5.7714 7.2521 5.2056 8.1657 4.7675C9.0798 4.3298 9.9743 4.0347 10.8497 3.8825C11.7251 3.7305 12.6576 3.6544 13.6475 3.6544C14.6371 3.6544 15.7032 3.8968 16.8452 4.3823C17.987 4.8676 19.0386 5.4767 19.9997 6.2094C20.961 6.9426 21.7842 7.6277 22.4697 8.2651C23.1548 8.9031 23.7256 9.488 24.1825 10.021C24.5249 10.4399 24.9916 10.6493 25.5814 10.6493C26.1714 10.6493 26.6376 10.4399 26.9804 10.021C27.4372 9.488 28.0084 8.9028 28.6935 8.2651C29.3787 7.6277 30.202 6.9429 31.1629 6.2094C32.1242 5.4767 33.1758 4.8676 34.3182 4.3823C35.4598 3.8969 36.5262 3.6544 37.5159 3.6544C38.5056 3.6544 39.4378 3.7305 40.3136 3.8825C41.1893 4.0346 42.0838 4.3298 42.9976 4.7675C43.9113 5.2055 44.6868 5.7717 45.3243 6.4663C45.9619 7.161 46.4855 8.0987 46.8948 9.2787C47.3034 10.4585 47.508 11.8196 47.508 13.3611C47.5078 16.5588 45.719 19.9471 42.1405 23.525Z" />
</svg>
