<svg width="10%" height="10%" viewBox="0 0 304 403">
<g clip-path="url(#clip0_3_6)">
<path d="M152 402.17C149.437 402.169 146.917 401.512 144.68 400.26C100.8 375.787 64.2534 340.038 38.8178 296.709C13.3823 253.38 -0.0188321 204.043 1.98625e-05 153.8C1.98625e-05 151.747 0.0200174 149.7 0.0600174 147.66C1.06002 102.18 17.99 63.88 49.06 36.91C76.54 13.11 113.09 0 152 0C190.91 0 227.45 13.11 254.9 36.91C286 63.91 302.96 102.18 303.9 147.66C303.9 149.66 303.97 151.75 303.97 153.8C303.997 204.821 290.172 254.891 263.97 298.67C238.536 341.075 202.461 376.095 159.32 400.26C157.083 401.512 154.563 402.169 152 402.17ZM152 30C120.31 30 90.74 40.5 68.75 59.58C44.22 80.84 30.84 111.52 30.06 148.3C30.06 150.12 30 151.96 30 153.8C29.9851 197.267 41.2112 240 62.5881 277.847C83.965 315.695 114.766 347.371 152 369.8C187.387 348.404 217.007 318.681 238.28 283.22C261.679 244.107 274.024 199.378 274 153.8C274 151.96 274 150.12 273.94 148.3C273.15 111.52 259.77 80.84 235.25 59.58C213.25 40.5 183.69 30 152 30Z" />
<path d="M152.39 248.6C133.735 248.6 115.5 243.068 99.9887 232.704C84.4778 222.34 72.3886 207.609 65.2497 190.375C58.1109 173.14 56.243 154.175 59.8824 135.879C63.5217 117.583 72.5049 100.777 85.6957 87.5857C98.8866 74.3948 115.693 65.4117 133.989 61.7723C152.285 58.133 171.25 60.0008 188.485 67.1397C205.719 74.2785 220.45 86.3678 230.814 101.879C241.178 117.389 246.71 135.625 246.71 154.28C246.684 179.287 236.738 203.262 219.055 220.945C201.372 238.628 177.397 248.574 152.39 248.6ZM152.39 89.97C139.668 89.97 127.232 93.7426 116.655 100.811C106.077 107.879 97.8331 117.925 92.9652 129.678C88.0972 141.432 86.8241 154.365 89.3067 166.842C91.7893 179.319 97.9162 190.78 106.912 199.775C115.909 208.77 127.37 214.895 139.848 217.375C152.325 219.856 165.258 218.581 177.011 213.711C188.764 208.841 198.809 200.596 205.875 190.017C212.941 179.438 216.712 167.002 216.71 154.28C216.681 137.234 209.894 120.895 197.837 108.845C185.779 96.7955 169.436 90.0185 152.39 90V89.97Z" />
</g>
<defs>
<clipPath id="clip0_3_6">
<rect width="304" height="403" fill="white"/>
</clipPath>
</defs>
</svg>
