<svg width="10%" height="10%" viewBox="0 0 76 76" fill="black" xmlns="http://www.w3.org/2000/svg">
<path d="M73.6687 64.8313L57.8031 48.9656C61.0812 44.025 63 38.1094 63 31.75C63 14.5188 48.9812 0.5 31.75 0.5C14.5188 0.5 0.5 14.5188 0.5 31.75C0.5 48.9812 14.5188 63 31.75 63C38.1094 63 44.025 61.0812 48.9656 57.8031L64.8313 73.6687C67.2688 76.1094 71.2312 76.1094 73.6687 73.6687C76.1094 71.2281 76.1094 67.2719 73.6687 64.8313ZM9.875 31.75C9.875 19.6875 19.6875 9.875 31.75 9.875C43.8125 9.875 53.625 19.6875 53.625 31.75C53.625 43.8125 43.8125 53.625 31.75 53.625C19.6875 53.625 9.875 43.8125 9.875 31.75Z"/>
</svg>
