<svg width="10%" height="10%" viewBox="0 0 127 91" fill="none" xmlns="http://www.w3.org/2000/svg">
<path d="M35.75 54H91.8737L98 22.295L97.9398 22.0631C97.8895 21.8396 92.3181 -3.19893e-07 63.8118 -3.19893e-07C35.3485 -3.19893e-07 29.1363 20.2676 29.0773 20.4745L29 20.7397L35.75 54Z" fill="#4F4A57"/>
<path d="M124.895 21.1148C122.135 16.7261 117.214 14 111.973 14C104.639 14.0243 99.9118 18.3123 98.6628 26.0358L92.9318 56.5383H34.0708L28.3398 26.0685C27.0908 18.3123 22.3566 14.0243 14.963 14C9.78866 14 4.85922 16.7261 2.10893 21.1148C0.0401427 24.4059 -0.507948 27.7068 0.470663 30.9301C2.32723 36.9911 9.07927 40.8474 11.3675 42.0043C11.587 66.9029 22.9727 84.4416 22.9727 84.4416H27.0908V91H37.7597V84.4416H89.2356V91H99.9033V84.4416H104.03C104.03 84.4416 115.408 66.9029 115.635 42.0043C117.915 40.8474 124.675 36.9911 126.523 30.9301C127.511 27.7068 126.962 24.4059 124.895 21.1148Z" fill="#004757"/>
</svg>
