<svg width="10%" height="10%" viewBox="0 0 198 133" fill="none" xmlns="http://www.w3.org/2000/svg">
<path d="M178.712 29.1986C178.703 29.3213 178.685 29.4453 178.667 29.5773C178.483 30.5479 177.795 31.4732 176.719 32.2226C176.516 32.7519 176.128 33.8373 175.855 35.1599C175.431 37.1706 175.721 39.1893 176.207 42.5413C176.357 43.5906 176.524 44.7639 176.692 46.0866C177.107 49.3399 177.256 51.3679 177.353 52.7172C177.495 54.7372 177.521 54.8613 177.927 55.3719C178.491 56.0773 178.871 56.7306 179.073 57.3479H190.388V33.2199C190.388 33.1759 190.361 33.1492 190.317 33.1399C188.473 33.0692 183.993 32.5146 178.712 29.1986Z" fill="#522E4C"/>
<path d="M166.339 16.2612C165.431 15.4946 156.929 9.49723 115.349 8.20123C110.313 8.05056 104.793 7.96262 98.7347 7.96262C42.7094 7.96262 32.144 15.4053 31.1294 16.2519C28.308 20.7413 25.3454 24.0399 22.4694 26.4559C24.216 26.4639 26.3507 27.2226 27.3814 27.5839L27.576 27.6546C29.5334 28.3426 35.372 28.3959 45.028 28.5012C61.2547 28.6599 68.6267 28.2986 73.6894 28.0519C76.6787 27.9013 78.804 27.7959 81.3614 27.8933C81.8547 27.9106 82.3227 27.9279 82.764 27.9546C83.4774 27.9906 84.1307 28.0252 84.748 28.0252C86.044 28.0252 86.9267 27.8666 87.7987 27.4879C87.976 27.4173 88.1614 27.32 88.3547 27.232C89.192 26.8266 90.2414 26.3239 91.4947 26.3239C91.7494 26.3239 92.0147 26.3413 92.2707 26.3853C92.7027 26.4639 93.804 26.7373 94.4667 27.6026C94.8894 28.1573 95.048 28.8626 94.9067 29.5773C94.7214 30.5479 94.0427 31.4732 92.9667 32.2226C92.7547 32.7519 92.3667 33.8373 92.0934 35.1599C91.68 37.1706 91.9707 39.1893 92.4467 42.5413C92.596 43.5906 92.764 44.7639 92.94 46.0866C93.3467 49.3399 93.496 51.3679 93.5934 52.7172C93.7347 54.7372 93.76 54.8613 94.1747 55.3719C94.74 56.0773 95.1187 56.7386 95.3134 57.3479H95.3654H103.249C103.964 54.8426 105.101 50.3012 105.455 45.5479C105.957 38.9079 104.899 33.6786 103.981 32.6026C103.064 31.5439 102.853 30.5212 102.844 29.8506C102.827 29.2692 102.923 27.8133 104.096 27.0026C104.635 26.6319 105.321 26.4559 106.187 26.4559C107.932 26.4559 110.101 27.2226 111.143 27.5839L111.336 27.6546C113.295 28.3426 119.123 28.3959 128.788 28.5012C145.007 28.6599 152.388 28.2986 157.44 28.0519C160.431 27.9013 162.564 27.7959 165.113 27.8933C165.607 27.9106 166.075 27.9279 166.524 27.9546C167.229 27.9906 167.881 28.0252 168.508 28.0252C169.796 28.0252 170.677 27.8666 171.551 27.4879C171.736 27.4173 171.921 27.32 172.107 27.232C172.864 26.8706 173.781 26.4293 174.849 26.3493C172.027 23.9333 169.108 20.6706 166.339 16.2612Z" fill="#522E4C"/>
<path d="M170.501 114.889H172.063L174.408 132.765H181.428L183.773 114.889H185.335V110.26H170.501V114.889Z" fill="#4B3B3E"/>
<path d="M19.084 29.8506C19.0746 29.5239 19.1013 29.2159 19.1626 28.9252C13.704 32.4786 9.03863 33.0692 7.14263 33.1399C7.10796 33.1492 7.0813 33.1759 7.0813 33.2199V57.3479H19.4986C20.204 54.8612 21.3493 50.3186 21.7026 45.5479C22.196 38.9079 21.1466 33.6786 20.2293 32.6026C19.3133 31.5439 19.1013 30.5212 19.084 29.8506Z" fill="#522E4C"/>
<path d="M11.7467 114.889H13.2987L15.6534 132.765H22.664L25.0187 114.889H26.58V110.26H11.7467V114.889Z" fill="#4B3B3E"/>
<path d="M195.529 93.3186C195.3 93.2493 2.16932 93.2493 1.93999 93.3186C0.81999 93.628 0 94.6506 0 95.8679V105.841C0 107.305 1.19065 108.496 2.65465 108.496H194.805C196.269 108.496 197.469 107.305 197.469 105.841V95.8679C197.469 94.6506 196.64 93.628 195.529 93.3186Z" fill="#4B3B3E"/>
<path d="M0 71.1321V86.4934C0 88.4334 0.73199 90.2147 1.93999 91.556C2.16932 91.4854 2.40799 91.4494 2.65465 91.4494H194.805C195.052 91.4494 195.3 91.4854 195.529 91.556C196.737 90.2147 197.469 88.4334 197.469 86.4934V71.1321C197.469 69.2094 196.755 67.4454 195.564 66.1054H1.90532C0.714656 67.4454 0 69.2094 0 71.1321Z" fill="#4F4A57"/>
<path d="M192.151 59.1119H179.125C179.064 59.3226 178.967 59.5346 178.844 59.7373C178.359 60.5133 177.424 61.1133 176.348 61.3426C176.031 61.4133 175.704 61.4479 175.369 61.4479C174.567 61.4479 173.861 61.2453 173.349 61.096L173.103 61.0253C172.441 60.84 171.868 60.7693 171.119 60.7693C170.713 60.7693 170.299 60.7866 169.831 60.8053C169.32 60.8306 168.755 60.8573 168.111 60.8666C167.361 60.8746 165.563 60.8747 163.023 60.8573C163.384 60.6107 163.676 60.2933 163.869 59.932C164.001 59.676 164.089 59.4026 164.135 59.1119C164.204 58.5733 164.089 57.9826 163.791 57.3479C163.657 57.0573 163.481 56.7573 163.269 56.4479C163.059 56.1479 163.04 56.1133 162.944 54.596C162.881 53.6 162.785 52.0826 162.52 49.6666C162.415 48.6786 162.308 47.8146 162.212 47.0386C161.903 44.56 161.717 43.0706 161.983 41.6066C162.141 40.6973 162.371 39.94 162.503 39.5333C163.781 38.4493 164.187 36.9413 163.455 35.8213C162.952 35.0533 162.097 34.7986 161.736 34.728C161.532 34.684 161.329 34.6653 161.127 34.6653C160.175 34.6653 159.399 35.0986 158.843 35.4066C158.72 35.4773 158.613 35.5386 158.508 35.592C158.032 35.8306 157.537 35.9267 156.815 35.9267C156.427 35.9267 156.021 35.9 155.58 35.8746C155.297 35.856 154.989 35.8386 154.672 35.8306C153.013 35.76 151.637 35.8386 149.707 35.944C146.479 36.1293 141.779 36.4026 131.425 36.28C125.525 36.2093 121.628 36.1653 120.481 35.6973L120.357 35.6453C119.661 35.3626 118.207 34.7627 116.972 34.7627C116.292 34.7627 115.728 34.9386 115.287 35.292C114.415 35.9893 114.344 37.1613 114.361 37.6293C114.369 38.1587 114.511 38.9693 115.137 39.816C115.719 40.6013 116.328 44.5786 116.028 49.2693C115.825 52.4 115.225 55.4253 114.776 57.3479C114.591 58.1506 114.432 58.7586 114.335 59.1119C114.273 59.3319 114.237 59.4466 114.237 59.456L114.159 59.7106L114.185 59.9759C114.22 60.3199 114.3 60.6106 114.396 60.8493C114.105 60.8573 113.815 60.8573 113.541 60.8666C110.499 60.9373 109.581 61.0079 108.452 61.4039C108.144 61.5186 107.835 61.6427 107.561 61.7573C107.509 61.7747 107.465 61.8013 107.412 61.8187C107.368 61.836 107.315 61.8626 107.271 61.88C106.548 62.1893 105.868 62.4627 105.145 62.4627C104.828 62.4627 104.537 62.4093 104.264 62.3133C104.052 62.2333 103.796 62.1013 103.532 61.88C103.496 61.8453 103.452 61.8093 103.408 61.7573C103.037 61.396 102.693 60.8226 102.579 59.9133L102.571 59.5253L102.641 59.3226C102.649 59.296 102.676 59.2266 102.712 59.1119H95.3653C95.304 59.3226 95.2067 59.5346 95.084 59.7373C94.5987 60.5133 93.672 61.1133 92.588 61.3426C92.2786 61.4133 91.944 61.4479 91.6173 61.4479C90.8067 61.4479 90.1013 61.2453 89.5893 61.096L89.3427 61.0253C88.6893 60.84 88.108 60.7693 87.3587 60.7693C86.9613 60.7693 86.5387 60.7866 86.08 60.8053C85.568 60.8306 85.004 60.8573 84.3507 60.8666C83.6107 60.8746 81.8107 60.8747 79.272 60.8573C79.624 60.6013 79.9147 60.284 80.1093 59.932C80.2507 59.676 80.3387 59.4026 80.3827 59.1119C80.4533 58.5733 80.3387 57.9826 80.0293 57.3479C79.8973 57.0573 79.7213 56.7573 79.5093 56.4479C79.3067 56.1479 79.28 56.1133 79.1827 54.596C79.1213 53.6 79.0333 52.0826 78.7693 49.6666C78.6546 48.6786 78.548 47.8146 78.4507 47.0386C78.152 44.56 77.9667 43.0706 78.2307 41.6066C78.3893 40.6973 78.6093 39.94 78.7507 39.5333C80.0213 38.4493 80.436 36.9413 79.704 35.8213C79.2013 35.0533 78.336 34.7986 77.984 34.728C77.7813 34.684 77.5693 34.6653 77.3667 34.6653C76.4147 34.6653 75.6467 35.0986 75.0827 35.4066C74.968 35.4773 74.8533 35.5386 74.748 35.592C74.2707 35.8306 73.7867 35.9267 73.0627 35.9267C72.6747 35.9267 72.2693 35.9 71.828 35.8746C71.5373 35.856 71.2373 35.8386 70.92 35.8306C69.2533 35.76 67.8773 35.8386 65.9467 35.944C62.728 36.1293 58.0267 36.4026 47.6733 36.28C41.7747 36.2093 37.876 36.1653 36.7293 35.6973L36.6067 35.6453C35.9013 35.3626 34.4453 34.7627 33.2107 34.7627C32.532 34.7627 31.968 34.9386 31.536 35.292C30.6627 35.9893 30.592 37.1613 30.6013 37.6293C30.6093 38.1587 30.7507 38.9693 31.3853 39.816C31.9587 40.6013 32.576 44.5786 32.276 49.2693C32.0733 52.4266 31.4733 55.4346 31.0333 57.3479C30.9267 57.7973 30.8307 58.1946 30.7413 58.5119L30.336 59.1119L30.4333 59.9759C30.468 60.3199 30.5387 60.6013 30.6453 60.8493C30.3453 60.8573 30.0627 60.8573 29.7813 60.8666C26.7387 60.9373 25.8293 61.0079 24.7013 61.4039C24.3747 61.5186 24.084 61.6427 23.8013 61.7573C23.748 61.7747 23.704 61.8013 23.652 61.8187C23.608 61.836 23.5547 61.8626 23.5107 61.88C22.796 62.1893 22.108 62.4627 21.3853 62.4627C21.076 62.4627 20.7773 62.4093 20.504 62.3133C20.3 62.2333 20.0453 62.1013 19.78 61.88C19.736 61.8453 19.692 61.8013 19.648 61.7573C19.2773 61.396 18.9333 60.8133 18.8187 59.9133L18.74 59.2706L18.8987 59.1119H5.31733V33.22C5.31733 32.232 6.08532 31.42 7.07199 31.3853C10.0707 31.2613 20.5733 29.7453 29.6307 15.3267C29.728 15.1587 29.8507 15.0173 30.0013 14.9026C31.7467 13.448 43.264 6.19867 98.7347 6.19867C104.801 6.19867 110.34 6.28662 115.401 6.44528C156.603 7.71595 165.916 13.6066 167.468 14.9026C167.608 15.0173 167.732 15.1587 167.829 15.3267C171.075 20.4853 174.505 23.9946 177.707 26.3759C183.447 30.6533 188.465 31.3053 190.388 31.3853C191.375 31.42 192.151 32.232 192.151 33.22V59.1119ZM197.469 61.5987V28.308C197.469 26.6933 196.155 25.38 194.515 25.38H194.383C190.837 25.38 181.931 24.2333 175.625 13.6679C174.76 11.6666 166.788 -2.8717e-05 98.7347 -2.8717e-05C30.672 -2.8717e-05 22.6987 11.6666 21.8347 13.6679C15.5387 24.2333 6.62266 25.38 3.07733 25.38H2.92799C1.31333 25.38 0 26.6933 0 28.308V61.5987C0 62.8507 0.793322 63.9266 1.90532 64.3413H195.564C196.675 63.9266 197.469 62.8507 197.469 61.5987Z" fill="#004757"/>
</svg>
