<svg width="197" height="133" viewBox="0 0 197 133" fill="none" xmlns="http://www.w3.org/2000/svg">
<path d="M178.909 28C178.9 28.1307 178.884 28.2629 178.866 28.4035C178.691 29.438 178.038 30.4242 177.016 31.2228C176.823 31.7869 176.454 32.9436 176.195 34.3533C175.792 36.4961 176.068 38.6475 176.529 42.2199C176.672 43.3382 176.831 44.5887 176.99 45.9983C177.384 49.4655 177.526 51.6268 177.618 53.0649C177.753 55.2177 177.778 55.3499 178.163 55.8941C178.699 56.6458 179.06 57.3421 179.252 58H190V32.2857C190 32.2388 189.975 32.2103 189.933 32.2004C188.181 32.1251 183.926 31.534 178.909 28Z" fill="#522E4C"/>
<path d="M166.455 16.4019C165.543 15.6257 157.007 9.55371 115.258 8.24158C110.201 8.08904 104.659 8 98.5757 8C42.3224 8 31.714 15.5353 30.6952 16.3925C27.8624 20.9377 24.8877 24.2774 22 26.7235C23.7538 26.7316 25.8971 27.4997 26.932 27.8655L27.1275 27.9371C29.0927 28.6337 34.9552 28.6876 44.6505 28.7943C60.9431 28.9549 68.3451 28.5891 73.4284 28.3394C76.4299 28.1868 78.5639 28.0802 81.1316 28.1787C81.627 28.1963 82.0969 28.2138 82.54 28.2408C83.2562 28.2773 83.9122 28.3124 84.5321 28.3124C85.8333 28.3124 86.7196 28.1517 87.5952 27.7684C87.7732 27.6968 87.9593 27.5983 88.1534 27.5092C88.9941 27.0988 90.0478 26.5899 91.3062 26.5899C91.5619 26.5899 91.8283 26.6074 92.0853 26.652C92.5191 26.7316 93.6249 27.0083 94.2903 27.8844C94.7147 28.446 94.874 29.1601 94.7321 29.8837C94.546 30.8664 93.8646 31.8033 92.7842 32.5619C92.5713 33.0979 92.1817 34.1967 91.9073 35.5359C91.4923 37.5716 91.7841 39.6153 92.2621 43.0091C92.412 44.0715 92.5807 45.2594 92.7574 46.5985C93.1657 49.8923 93.3157 51.9456 93.4134 53.3117C93.5553 55.3568 93.5807 55.4824 93.9971 55.9994C94.5647 56.7135 94.9449 57.3831 95.1404 58H95.1926H103.109C103.826 55.4635 104.968 50.8656 105.323 46.0531C105.828 39.3305 104.765 34.0361 103.844 32.9467C102.923 31.8748 102.711 30.8394 102.702 30.1604C102.684 29.5718 102.781 28.0977 103.959 27.277C104.5 26.9017 105.189 26.7235 106.058 26.7235C107.81 26.7235 109.989 27.4997 111.034 27.8655L111.228 27.9371C113.195 28.6337 119.047 28.6876 128.751 28.7943C145.036 28.9549 152.447 28.5891 157.52 28.3394C160.523 28.1868 162.665 28.0802 165.224 28.1787C165.72 28.1963 166.19 28.2138 166.641 28.2408C167.349 28.2773 168.004 28.3124 168.633 28.3124C169.926 28.3124 170.811 28.1517 171.688 27.7684C171.874 27.6968 172.06 27.5983 172.246 27.5092C173.007 27.1434 173.928 26.6965 175 26.6155C172.166 24.1694 169.235 20.8661 166.455 16.4019Z" fill="#522E4C"/>
<path d="M170 114.731H171.684L174.214 133H181.786L184.316 114.731H186V110H170V114.731Z" fill="#4B3B3E"/>
<path d="M20.3942 28.0092C20.3854 27.6529 20.4107 27.317 20.4689 27C15.287 30.8755 10.8581 31.5198 9.05822 31.5968C9.02531 31.607 9 31.6361 9 31.6841V58H20.7879C21.4575 55.2878 22.5447 50.3333 22.8801 45.13C23.3485 37.8879 22.3523 32.1844 21.4815 31.0108C20.6119 29.8561 20.4107 28.7407 20.3942 28.0092Z" fill="#522E4C"/>
<path d="M12 114.731H13.7787L16.4773 133H24.512L27.2106 114.731H29V110H12V114.731Z" fill="#4B3B3E"/>
<path d="M195.065 93.0512C194.836 92.9829 2.16417 92.9829 1.93538 93.0512C0.818041 93.3559 0 94.3631 0 95.5621V105.385C0 106.827 1.18783 108 2.64835 108H194.342C195.803 108 197 106.827 197 105.385V95.5621C197 94.3631 196.173 93.3559 195.065 93.0512Z" fill="#4B3B3E"/>
<path d="M0 71.1352V86.8281C0 88.81 0.73025 90.6297 1.93538 92C2.16417 91.9278 2.40227 91.8911 2.64835 91.8911H194.342C194.588 91.8911 194.836 91.9278 195.065 92C196.27 90.6297 197 88.81 197 86.8281V71.1352C197 69.171 196.287 67.3689 195.099 66H1.90079C0.712957 67.3689 0 69.171 0 71.1352Z" fill="#4F4A57"/>
<path d="M191.694 58.7984H178.7C178.638 59.0079 178.541 59.2188 178.419 59.4204C177.935 60.1923 177.002 60.7891 175.929 61.0172C175.612 61.0875 175.286 61.122 174.953 61.122C174.152 61.122 173.448 60.9204 172.937 60.7719L172.691 60.7016C172.031 60.5172 171.46 60.4469 170.712 60.4469C170.308 60.4469 169.894 60.4642 169.427 60.4828C168.918 60.508 168.354 60.5345 167.711 60.5438C166.964 60.5517 165.169 60.5517 162.635 60.5345C162.996 60.2891 163.287 59.9735 163.48 59.6141C163.612 59.3594 163.699 59.0875 163.745 58.7984C163.814 58.2626 163.699 57.675 163.401 57.0437C163.268 56.7546 163.093 56.4562 162.881 56.1485C162.671 55.8501 162.652 55.8157 162.557 54.3064C162.494 53.3157 162.398 51.8064 162.134 49.4032C162.029 48.4204 161.922 47.561 161.826 46.7891C161.518 44.3236 161.333 42.8421 161.598 41.3859C161.756 40.4814 161.985 39.7281 162.116 39.3236C163.392 38.2454 163.796 36.7454 163.066 35.6313C162.565 34.8674 161.712 34.614 161.352 34.5438C161.148 34.5 160.946 34.4815 160.744 34.4815C159.794 34.4815 159.02 34.9124 158.465 35.2188C158.343 35.2891 158.236 35.3501 158.131 35.4032C157.656 35.6406 157.163 35.7361 156.442 35.7361C156.055 35.7361 155.651 35.7096 155.21 35.6844C154.928 35.6658 154.621 35.6485 154.304 35.6406C152.65 35.5703 151.277 35.6485 149.351 35.7533C146.131 35.9377 141.442 36.2096 131.113 36.0875C125.227 36.0172 121.339 35.9735 120.195 35.5079L120.071 35.4562C119.377 35.175 117.926 34.5783 116.694 34.5783C116.016 34.5783 115.453 34.7533 115.013 35.1048C114.143 35.7984 114.072 36.9642 114.09 37.4297C114.098 37.9563 114.238 38.7626 114.864 39.6048C115.444 40.386 116.052 44.3422 115.752 49.008C115.55 52.122 114.951 55.1313 114.503 57.0437C114.318 57.8421 114.16 58.4469 114.063 58.7984C114.002 59.0172 113.966 59.1313 113.966 59.1406L113.887 59.3939L113.914 59.6578C113.949 60 114.028 60.2891 114.124 60.5265C113.834 60.5345 113.544 60.5345 113.271 60.5438C110.236 60.6141 109.321 60.6843 108.194 61.0782C107.887 61.1923 107.578 61.3157 107.306 61.4297C107.254 61.447 107.21 61.4735 107.157 61.4907C107.113 61.508 107.06 61.5345 107.016 61.5517C106.295 61.8594 105.616 62.1313 104.895 62.1313C104.579 62.1313 104.289 62.0783 104.016 61.9828C103.805 61.9032 103.549 61.7719 103.286 61.5517C103.25 61.5172 103.206 61.4814 103.162 61.4297C102.792 61.0703 102.449 60.5 102.335 59.5955L102.327 59.2095L102.397 59.0079C102.405 58.9814 102.432 58.9124 102.468 58.7984H95.1387C95.0775 59.0079 94.9804 59.2188 94.858 59.4204C94.3738 60.1923 93.4494 60.7891 92.3679 61.0172C92.0593 61.0875 91.7255 61.122 91.3996 61.122C90.5908 61.122 89.8872 60.9204 89.3764 60.7719L89.1303 60.7016C88.4785 60.5172 87.8986 60.4469 87.151 60.4469C86.7546 60.4469 86.333 60.4642 85.8754 60.4828C85.3646 60.508 84.802 60.5345 84.1502 60.5438C83.4119 60.5517 81.6162 60.5517 79.0836 60.5345C79.4347 60.2799 79.7247 59.9642 79.9189 59.6141C80.0599 59.3594 80.1477 59.0875 80.1916 58.7984C80.2621 58.2626 80.1477 57.675 79.8391 57.0437C79.7074 56.7546 79.5319 56.4562 79.3204 56.1485C79.1182 55.8501 79.0916 55.8157 78.9945 54.3064C78.9333 53.3157 78.8455 51.8064 78.5821 49.4032C78.4677 48.4204 78.3613 47.561 78.2642 46.7891C77.9663 44.3236 77.7814 42.8421 78.0447 41.3859C78.203 40.4814 78.4225 39.7281 78.5635 39.3236C79.8311 38.2454 80.2448 36.7454 79.5146 35.6313C79.0131 34.8674 78.1498 34.614 77.7987 34.5438C77.5965 34.5 77.385 34.4815 77.1828 34.4815C76.2331 34.4815 75.4669 34.9124 74.9042 35.2188C74.7898 35.2891 74.6754 35.3501 74.5703 35.4032C74.0941 35.6406 73.6113 35.7361 72.889 35.7361C72.5019 35.7361 72.0976 35.7096 71.6573 35.6844C71.3673 35.6658 71.068 35.6485 70.7514 35.6406C69.0887 35.5703 67.716 35.6485 65.7899 35.7533C62.5789 35.9377 57.8887 36.2096 47.56 36.0875C41.6754 36.0172 37.786 35.9735 36.642 35.5079L36.5197 35.4562C35.816 35.175 34.3635 34.5783 33.1317 34.5783C32.4547 34.5783 31.892 34.7533 31.461 35.1048C30.5898 35.7984 30.5193 36.9642 30.5286 37.4297C30.5366 37.9563 30.6776 38.7626 31.3107 39.6048C31.8827 40.386 32.4986 44.3422 32.1993 49.008C31.9971 52.1485 31.3985 55.1406 30.9596 57.0437C30.8532 57.4907 30.7574 57.8859 30.6683 58.2016L30.2639 58.7984L30.361 59.6578C30.3956 60 30.4661 60.2798 30.5725 60.5265C30.2732 60.5345 29.9912 60.5345 29.7105 60.5438C26.6751 60.6141 25.7679 60.6843 24.6426 61.0782C24.3167 61.1923 24.0268 61.3157 23.7448 61.4297C23.6916 61.447 23.6477 61.4735 23.5958 61.4907C23.5519 61.508 23.4987 61.5345 23.4548 61.5517C22.7418 61.8594 22.0555 62.1313 21.3345 62.1313C21.0259 62.1313 20.7279 62.0783 20.4553 61.9828C20.2517 61.9032 19.9977 61.7719 19.733 61.5517C19.6891 61.5172 19.6452 61.4735 19.6013 61.4297C19.2315 61.0703 18.8883 60.4907 18.7739 59.5955L18.6955 58.9562L18.8537 58.7984H5.3047V33.0437C5.3047 32.061 6.07086 31.2533 7.05518 31.2188C10.0467 31.0955 20.5244 29.5876 29.5602 15.2454C29.6573 15.0783 29.7797 14.9377 29.93 14.8236C31.6712 13.3767 43.1612 6.16581 98.5 6.16581C104.552 6.16581 110.078 6.25329 115.127 6.41112C156.23 7.67504 165.522 13.5345 167.07 14.8236C167.21 14.9377 167.333 15.0783 167.43 15.2454C170.668 20.3767 174.091 23.8673 177.284 26.236C183.011 30.4907 188.017 31.1393 189.936 31.2188C190.92 31.2533 191.694 32.061 191.694 33.0437V58.7984ZM197 61.2719V28.1578C197 26.5517 195.688 25.2454 194.052 25.2454H193.921C190.384 25.2454 181.498 24.1047 175.208 13.5955C174.345 11.6047 166.392 -1.72476e-06 98.5 -1.72476e-06C30.5991 -1.72476e-06 22.6447 11.6047 21.7828 13.5955C15.5017 24.1047 6.60692 25.2454 3.07001 25.2454H2.92104C1.31021 25.2454 0 26.5517 0 28.1578V61.2719C0 62.5173 0.791437 63.5875 1.90079 64H195.099C196.207 63.5875 197 62.5173 197 61.2719Z" fill="#004757"/>
</svg>
