<svg width="161" height="99" viewBox="0 0 161 99" fill="none" xmlns="http://www.w3.org/2000/svg">
<path d="M4.44444 64H34.9444H54.4444H156.5V58.5C156.5 58.5 155.944 55.5 152.944 51C149.944 46.5 135.444 46 135.444 46H123.444H112.444H103.444H93.9444H87.9444H78.9444H71.4444H63.9444H53.9444H45.9444H37.9444H31.9444H25.4444H19.4444C19.4444 46 15.9444 46 10.9444 49.5C5.94445 53 5.44445 55.5 4.44444 58.5C3.44445 61.5 4.44444 64 4.44444 64Z" fill="#004757"/>
<path d="M152 57.7535H146C146 45.7542 146.092 19.1901 146.092 7.04633C148.136 7.04633 150.085 7.04633 152.042 7.04633C152.042 20.7067 152 44.0454 152 57.7535ZM140 57.7535C137.819 57.7535 135.644 57.7535 133.5 57.7535C133.5 45.8832 133.623 19.0628 133.623 7.08135C135.809 7.08135 137.915 7.08135 140.007 7.08135C140.007 19.0081 140 45.7995 140 57.7535ZM127.5 57.7535C125.327 57.7535 123.522 57.7535 121.5 57.7535C121.5 45.8294 121.341 19.0602 121.341 7.11212C123.397 7.11212 125.421 7.11212 127.487 7.11212C127.487 18.9978 127.5 45.7661 127.5 57.7535ZM115.5 57.7535C113.306 57.7535 111.131 57.7535 109 57.7535C109 45.8652 108.832 19.0636 108.832 7.11469C110.979 7.11469 113.081 7.11469 115.215 7.11469C115.215 18.9961 115.5 45.7986 115.5 57.7535ZM103 57.7535C100.811 57.7535 98.1352 57.7535 96 57.7535C96 45.8772 96.3305 19.0713 96.3305 7.07624C98.5076 7.07624 100.582 7.07624 102.712 7.07624C102.712 18.9859 103 45.7892 103 57.7535ZM90.5 57.7535C88.2538 57.7535 86.1078 57.7535 84 57.7535C84 45.8259 83.822 19.0559 83.822 7.09589C85.9289 7.09589 88.0342 7.09589 90.2053 7.09589C90.2053 18.9799 90.5 45.7465 90.5 57.7535ZM77.5 57.7535C75.4639 57.7535 73.2779 57.7535 71 57.7535C71 45.8251 70.9349 19.0422 70.9349 7.10528C73.0119 7.10528 75.1164 7.10528 77.3071 7.10528C77.3071 18.9679 77.5 45.7824 77.5 57.7535ZM65 57.7535C62.9221 57.7535 60.7095 57.7535 58.5 57.7535C58.5 45.8464 58.4724 19.0807 58.4724 7.12153C60.4871 7.12153 62.5899 7.12153 64.7891 7.12153C64.7891 18.9782 65 45.7439 65 57.7535ZM15 57.7535L9 57.7535C9 57.7535 9.10374 20.7733 9.10374 7.09503C10.9963 7.09503 12.9665 7.09503 15.0146 7.09503C15.0146 19.1183 15 57.7535 15 57.7535ZM38.5 0.500008C37.9668 2.513 41.2888 5.03506 41 7.12153C42.3346 7.12153 51.2457 7.07624 52.5 7.07624C52.5 24.7899 52.5 40.1838 52.5 57.9402C50.3324 57.9402 48.9137 58.0688 46.8409 58.0739H45.2389C45.1851 57.1725 45.2432 55.7721 45.2389 54.8699C45.2201 50.0715 45.244 45.2501 45.2389 40.4517C45.2389 39.6742 45.2389 31.392 45.2389 30.5C44.3426 30.7623 39.9915 29.5576 40 30.5C40.0513 36.046 40.0017 52.395 40 57.9402C40 57.9402 40.8208 57.7988 38.8308 57.7535C37.1015 57.7142 36.3949 57.7433 34.6656 57.7535L33.02 57.7535C33.0866 55.3612 33.02 40.5197 33.02 38L30 37.5H28.2575C28.3045 39.19 28.2703 56.2484 28.2575 57.9402C28.2532 58.3913 28.6565 57.8803 27.9371 57.9402C21.5 57.9402 22.0867 57.9402 20.3341 57.9402C20.3341 47.9119 20.6127 39.396 20.3341 29.5652C20.3341 19.739 20.1111 9.8676 20.0197 7.62939e-06C13.2946 7.62939e-06 6.74215 7.62939e-06 0.0931278 7.62939e-06C0.00597796 2.09417 0.236672 4.13108 0 6.33631C0.785203 6.33631 1.40807 6.35256 2.03008 6.33291C2.75975 6.30984 3.08186 6.58239 3.07502 7.37101V74.5H158C158.015 62.5835 157.918 49.6626 157.954 37.7462C157.985 27.6786 157.852 17.6103 158.056 7.54275C158.074 6.58495 158.397 6.29018 159.289 6.31837C159.864 6.33717 160.459 6.44055 161 6.23464C161 4.13365 161 2.0728 161 0.0179443C123.994 0.0179443 75.4498 0.500008 38.5 0.500008Z" fill="#522E4C"/>
<path d="M48.7325 0.360565C47.6201 0.241802 46.7332 0.0692135 45.8463 0.0649414C37.4338 0.0239297 29.0204 0.00512646 20.6079 0C19.1605 -0.000854411 18.8153 0.379356 18.7478 1.80793C18.7307 2.1608 18.7427 2.51538 18.741 2.8691C18.6675 18.2417 19.1289 33.6134 18.7794 48.9851C18.7419 50.6349 18.753 52.2797 18.6026 53.9313C18.4334 55.7904 18.4761 57.6702 19.0332 59.3986C20.1456 59.7729 20.7591 59.332 21.282 58.5049C21.9544 57.4412 22.7337 56.4372 23.735 55.6606L24.9808 54.7857C26.3974 54.0381 27.7952 53.6553 29.1528 53.1665C30.2294 52.7786 31.2555 52.3027 32.1911 51.6457C33.4958 50.7306 34.0127 49.5148 33.8718 47.8914C34.1691 53.1119 33.4206 42.6778 33.8718 47.8914L34.4425 44.5763C34.3237 40.2462 34.7937 48.8868 34.4425 44.5763C35.0414 43.6886 35.8352 43.1315 36.6802 42.618C38.1669 41.714 39.7826 41.1211 41.4333 40.6221C43.4762 40.0044 44.7587 38.6339 45.4806 36.6756C46.0172 35.2205 46.1625 33.7065 46.159 32.1669C46.1394 24.0277 46.0787 15.8861 46.429 7.75293C46.5392 5.19995 46.4128 2.4983 48.7325 0.360565Z" fill="#FFC179"/>
<path d="M12.519 98.6605C12.3267 93.37 12.4532 88.1452 12.4395 82.9205C12.4335 80.7571 12.425 80.7571 14.6405 80.758C36.152 80.7674 57.6626 80.7845 79.1733 80.7845C101.471 80.7845 123.768 80.7674 146.065 80.758C148.057 80.7571 148.048 80.758 148.042 82.7932C148.026 88.0581 148.151 93.3238 147.964 98.6476C151.134 98.6476 154.85 98.6476 158 98.6476V76C106.523 75.8231 54.4654 75.8197 3 76C3 83.5359 3 91.1972 3 98.6605C6.23822 98.6605 9.36963 98.6605 12.519 98.6605Z" fill="#4B3B3E"/>
<path d="M26.1547 11.1808C25.8702 11.1808 25.6275 11.0125 25.4891 10.7169C25.4242 10.5819 25.3652 10.4426 25.3063 10.3042C25.1516 9.94021 25.0038 9.59503 24.7689 9.31734C24.7526 9.31649 24.7373 9.31649 24.7227 9.31649C24.4433 9.31649 24.187 9.45919 23.9162 9.61213C23.6146 9.7813 23.2719 9.97354 22.8584 9.97354C22.7747 9.97354 22.6884 9.965 22.5995 9.94876L22.4406 9.91885L22.4269 9.75652C22.3714 9.10033 22.6892 8.65091 22.9968 8.21431C23.1831 7.95115 23.3591 7.70167 23.4565 7.4086C23.4539 7.41202 23.4488 7.41373 23.4437 7.41373C23.4044 7.41373 23.3027 7.33596 23.2386 7.28726C23.0575 7.15056 22.8336 6.9814 22.8131 6.70628C22.7994 6.51233 22.8909 6.31836 23.0934 6.1133L23.1352 6.07058L23.1916 6.05606C23.2566 6.03898 23.3223 6.03128 23.3881 6.03128C23.6086 6.03128 23.7906 6.12784 23.9512 6.21328C24.0751 6.28078 24.193 6.34315 24.3229 6.36366L26.0915 4.04734L26.2624 4.25582C26.7622 4.86586 26.7613 5.49728 26.7613 6.0535C26.7605 6.33375 26.7605 6.59946 26.8246 6.83955C26.963 6.89936 27.127 6.9139 27.3227 6.9139L27.6516 6.90876C28.0968 6.90876 28.5513 6.98225 28.8547 7.51027L28.9145 7.61622L28.8547 7.72216C28.5274 8.29889 27.9874 8.44499 27.5115 8.57315C27.2543 8.64322 27.0091 8.70901 26.7938 8.8329V10.4204C26.793 10.5853 26.7913 11.0809 26.282 11.1697C26.2385 11.1774 26.1957 11.1808 26.1547 11.1808Z" fill="#C88BE4"/>
<path d="M26.0855 3.70206L25.7583 4.13183L25.0414 5.07168L24.2408 6.11833C24.1853 6.09697 24.1246 6.06537 24.052 6.02607C23.8777 5.93208 23.6616 5.81672 23.3873 5.81672C23.3044 5.81672 23.2198 5.82784 23.1369 5.85006L23.0233 5.87995L22.9413 5.96282C22.6935 6.21487 22.5816 6.46266 22.6004 6.72155C22.6277 7.09322 22.9174 7.31279 23.1096 7.45804C23.131 7.47428 23.1583 7.49394 23.1831 7.51445C23.0908 7.71096 22.9592 7.89722 22.8217 8.09203C22.5072 8.53632 22.1518 9.04127 22.2142 9.77436L22.2407 10.0982L22.5602 10.1588C22.6627 10.1776 22.7619 10.187 22.8584 10.187C23.3275 10.187 23.6957 9.98027 24.0204 9.79828C24.2562 9.66585 24.4621 9.5505 24.6663 9.53255C24.8483 9.77435 24.9765 10.0751 25.1106 10.3895C25.1704 10.5297 25.2303 10.6706 25.296 10.8082C25.4695 11.1756 25.7899 11.3952 26.1539 11.3952C26.2068 11.3952 26.2624 11.3901 26.3188 11.3798C26.5751 11.3362 27.0049 11.1517 27.0074 10.422C27.0083 10.0016 27.0083 9.58126 27.0083 9.17798L27.0074 8.96352C27.1766 8.88492 27.368 8.83366 27.5671 8.77983C28.0583 8.6474 28.6693 8.48249 29.0401 7.82801L29.1614 7.61612L29.0392 7.40422C28.6334 6.69592 27.9703 6.69591 27.6516 6.69591L27.4799 6.69762L27.3227 6.69933C27.2142 6.69933 27.1031 6.69591 27.0074 6.67455C26.9741 6.48573 26.975 6.27469 26.975 6.0534C26.975 5.49034 26.9758 4.78973 26.4281 4.12073L26.0855 3.70206ZM26.0975 4.39157C26.8203 5.27418 26.3837 6.20719 26.646 6.98897C26.8485 7.10773 27.0826 7.12654 27.3227 7.12654C27.4321 7.12654 27.5423 7.12312 27.6516 7.12312C28.0404 7.12312 28.4138 7.17182 28.6693 7.61697C28.2036 8.43635 27.2646 8.24497 26.5802 8.71575C26.5802 9.25232 26.5811 9.83673 26.5802 10.4203C26.5794 10.6672 26.5349 10.909 26.2453 10.9594C26.2137 10.9654 26.1838 10.968 26.1539 10.968C25.9377 10.968 25.7754 10.8244 25.6814 10.6262C25.4336 10.1016 25.2644 9.53512 24.8731 9.1139C24.821 9.10621 24.7714 9.10278 24.7219 9.10278C24.0443 9.10278 23.5667 9.75984 22.8584 9.75984C22.7875 9.75984 22.7149 9.753 22.6397 9.73848C22.5585 8.78837 23.3847 8.30392 23.659 7.47515C23.6564 7.09322 22.573 6.94625 23.2463 6.26272C23.295 6.24905 23.342 6.24393 23.3873 6.24393C23.7376 6.24393 23.9896 6.58398 24.41 6.58398C24.4143 6.58398 24.4186 6.58398 24.4237 6.58398C24.9269 5.92523 25.4644 5.21949 26.0975 4.39157Z" fill="#3D003A"/>
<path d="M29.9594 33.0896C29.4357 33.0896 29.3024 32.612 29.2135 32.2967C29.1922 32.2215 29.1717 32.1471 29.1469 32.0796C29.105 31.9626 29.0478 31.8507 28.9888 31.7328L28.9623 31.6772C28.7496 31.696 28.5761 31.7797 28.4095 31.8609C28.2087 31.9583 28.002 32.0583 27.7884 32.0583C27.5637 32.0583 27.3731 31.9498 27.2202 31.7345C26.7836 31.1184 27.28 30.6323 27.6089 30.3102C27.7106 30.2102 27.8097 30.1136 27.8849 30.0162C28.09 29.748 28.0156 29.5882 27.8439 29.2797C27.7807 29.1661 27.7183 29.0525 27.6764 28.9328C27.6465 28.8448 27.5859 28.7466 27.5227 28.6432C27.3535 28.3707 27.0989 27.9588 27.4808 27.5538C27.6414 27.3838 27.8208 27.2967 28.0122 27.2967C28.2677 27.2967 28.4864 27.4496 28.6795 27.5846C28.7727 27.6495 28.8641 27.7162 28.9572 27.7563C29.117 27.8255 29.2665 27.9204 29.4066 28.0084L29.4904 28.0605C29.6279 28.0058 29.727 27.8614 29.8629 27.6452C30.0466 27.3539 30.2756 26.9899 30.7677 26.9899C30.9113 26.9899 31.065 27.0215 31.2359 27.0856L31.3991 27.1471L31.136 28.8218C31.2735 28.9798 31.5085 29.0354 31.7554 29.0935C32.1143 29.1781 32.6047 29.2934 32.6192 29.8701C32.638 30.6186 32.022 30.7262 31.5717 30.8049C31.376 30.8382 31.1915 30.8707 31.0591 30.9407C30.8309 31.0603 30.8156 31.2355 30.8053 31.5593C30.8027 31.6447 30.8002 31.7293 30.7916 31.8114C30.7839 31.8848 30.7814 31.9626 30.778 32.0412C30.7643 32.406 30.7429 32.9571 30.1354 33.0725C30.0714 33.0844 30.0133 33.0896 29.9594 33.0896Z" fill="#C88BE4"/>
<path d="M30.7677 26.7764C30.1577 26.7764 29.8715 27.231 29.6818 27.5326C29.6066 27.653 29.5442 27.7487 29.487 27.8068C29.3554 27.7239 29.2084 27.6334 29.0427 27.5607C28.9769 27.5325 28.8914 27.4719 28.8017 27.4095C28.5933 27.2643 28.3352 27.0831 28.0123 27.0831C27.7594 27.0831 27.5278 27.1925 27.3253 27.4078C26.8315 27.9316 27.1749 28.4886 27.3407 28.7561C27.3954 28.8458 27.4526 28.9372 27.4748 29.0039C27.5244 29.1457 27.5953 29.273 27.6577 29.3841C27.8269 29.6865 27.832 29.7344 27.7158 29.8864C27.6534 29.9676 27.5594 30.0599 27.4595 30.1582C27.1254 30.4854 26.5042 31.0946 27.0459 31.8576C27.2894 32.2002 27.5833 32.272 27.7884 32.272C28.0507 32.272 28.2805 32.1617 28.5027 32.0532C28.6163 31.9977 28.7325 31.9422 28.8385 31.9097C28.8786 31.9909 28.9162 32.0703 28.947 32.1532C28.9692 32.2156 28.988 32.2848 29.0076 32.354C29.1008 32.6864 29.2734 33.3033 29.9586 33.3033C30.0244 33.3033 30.0962 33.2964 30.1748 33.2819C30.9497 33.1366 30.9771 32.4292 30.9916 32.049C30.995 31.9755 30.9967 31.9029 31.0044 31.8345C31.0129 31.7465 31.0164 31.6568 31.0189 31.5654C31.0292 31.2287 31.0522 31.1852 31.1582 31.1305C31.2616 31.0758 31.4376 31.045 31.6085 31.0151C32.0451 30.9391 32.8568 30.7973 32.8328 29.8643C32.8149 29.1243 32.1826 28.9748 31.8041 28.8859C31.611 28.8407 31.4615 28.8013 31.365 28.739L31.4555 28.1623L31.5828 27.3531L31.6367 27.0088L31.312 26.8866C31.1155 26.8123 30.9378 26.7764 30.7677 26.7764ZM30.7677 27.2036C30.8797 27.2036 31.0087 27.2284 31.1608 27.2865C31.0762 27.8239 30.989 28.3776 30.9104 28.8765C31.2932 29.4892 32.3868 29.1209 32.4056 29.8753C32.427 30.7024 31.4709 30.4828 30.96 30.7511C30.52 30.9827 30.6191 31.4133 30.5798 31.7892C30.5353 32.2062 30.6362 32.7607 30.0962 32.8624C30.0466 32.8718 30.0005 32.876 29.9586 32.876C29.5049 32.876 29.4784 32.3625 29.3477 32.0062C29.2819 31.826 29.1862 31.6559 29.0939 31.462C29.0615 31.4569 29.0282 31.4552 28.9957 31.4552C28.5437 31.4552 28.1396 31.8448 27.7884 31.8448C27.6483 31.8448 27.5175 31.7833 27.3945 31.6107C26.9562 30.9929 27.7235 30.5794 28.055 30.1453C28.4591 29.6173 28.0217 29.2755 27.879 28.8629C27.7457 28.4801 27.2578 28.1024 27.6363 27.7009C27.7662 27.5633 27.8918 27.5103 28.0123 27.5103C28.3122 27.5103 28.5898 27.829 28.8718 27.9521C29.0854 28.0452 29.2776 28.1853 29.4562 28.2904C30.062 28.1896 30.0654 27.2036 30.7677 27.2036Z" fill="#3D003A"/>
<path d="M39.557 25.3316C39.2187 25.2085 39.0469 24.9548 39.0751 24.6173C39.1238 24.0431 39.1281 23.4672 38.8359 23.1494C38.6488 22.9452 38.3412 22.8469 37.8944 22.8469L37.8021 22.6342V22.8478C37.6466 22.8478 37.4996 22.7829 37.3885 22.6641C37.2578 22.5248 37.1895 22.3266 37.2031 22.1207C37.2254 21.7909 37.4689 21.561 37.7952 21.561L37.8918 21.5619C38.3463 21.5619 38.6599 21.4611 38.8504 21.2526C39.1503 20.9237 39.1409 20.3187 39.0914 19.7711L39.082 19.6856C39.0487 19.3891 38.9872 18.8372 39.7091 18.6706L39.8057 18.6475L39.8843 18.7073C40.156 18.9081 40.2833 19.202 40.4063 19.4857C40.5157 19.7369 40.6191 19.9744 40.8139 20.1222C40.9933 20.1145 41.1257 20.0291 41.2778 19.9317C41.4743 19.8053 41.6973 19.6626 41.9818 19.6626C42.1228 19.6626 42.2672 19.6993 42.4099 19.7719L42.4808 19.8078L42.5107 19.8813C42.7423 20.4478 42.4381 20.8647 42.1937 21.1996C42.0374 21.4132 41.8887 21.6157 41.8836 21.8302C41.8776 22.0703 42.028 22.2959 42.1869 22.5342C42.4125 22.8726 42.6688 23.2571 42.5355 23.7723L42.5133 23.8577L42.4381 23.903C42.2672 24.0047 42.0989 24.0534 41.9238 24.0534C41.67 24.0534 41.453 23.9474 41.2624 23.8552C41.1292 23.7911 41.0036 23.7287 40.8797 23.7082C40.702 23.8381 40.6216 24.0713 40.5285 24.337C40.3969 24.7172 40.2329 25.1889 39.6852 25.3367L39.6203 25.3546L39.557 25.3316Z" fill="#C88BE4"/>
<path d="M39.8536 18.4177L39.6613 18.4613C38.7539 18.6715 38.8385 19.4251 38.8693 19.7087L38.8787 19.7899C38.9205 20.2624 38.9385 20.84 38.6933 21.1082C38.5472 21.2689 38.2772 21.3483 37.891 21.3483L37.8175 21.3475C37.8166 21.3475 37.8166 21.3475 37.8166 21.3475C37.357 21.3475 37.0195 21.6662 36.9904 22.1062C36.9733 22.3711 37.0613 22.6274 37.2322 22.8102C37.3843 22.9734 37.5868 23.0623 37.803 23.0623L37.8953 23.0606C38.2729 23.0606 38.5361 23.1392 38.6787 23.2947C38.9154 23.551 38.9043 24.0987 38.8624 24.5994C38.8257 25.0351 39.0521 25.3743 39.4827 25.5324L39.61 25.5785L39.7408 25.5426C40.397 25.3658 40.5901 24.8121 40.731 24.4071C40.8037 24.1952 40.8618 24.0423 40.9395 23.9449C41.0104 23.9705 41.0882 24.0081 41.1693 24.0474C41.3701 24.1448 41.6213 24.2662 41.9229 24.2662C42.1357 24.2662 42.3459 24.2055 42.5475 24.085L42.6987 23.9962L42.7423 23.8261C42.8995 23.2178 42.5902 22.7538 42.3647 22.4146C42.2186 22.1968 42.093 22.0088 42.0972 21.8353C42.1015 21.6884 42.2297 21.5115 42.3664 21.3253C42.627 20.9673 42.985 20.4777 42.7081 19.801L42.6483 19.6541L42.5074 19.5814C42.3339 19.4926 42.157 19.449 41.981 19.449C41.6341 19.449 41.3727 19.6164 41.1617 19.7523C41.0608 19.8172 40.9634 19.8796 40.8874 19.9027C40.7686 19.7839 40.6909 19.6036 40.602 19.4003C40.4739 19.1046 40.3286 18.7706 40.0125 18.5348L39.8536 18.4177ZM39.757 18.8782C40.2303 19.2294 40.2098 19.9924 40.7447 20.3342C40.7729 20.3384 40.8019 20.3401 40.8293 20.3401C41.2497 20.3401 41.5427 19.8762 41.981 19.8762C42.0836 19.8762 42.1921 19.901 42.3134 19.9616C42.6338 20.7485 41.688 21.157 41.67 21.8242C41.6521 22.5103 42.5279 22.9495 42.3288 23.7193C42.1818 23.8056 42.0485 23.839 41.9229 23.839C41.5282 23.839 41.2146 23.5074 40.8276 23.4878C40.1996 23.8389 40.4328 24.9138 39.6297 25.1308C39.3392 25.0249 39.2717 24.8318 39.2879 24.6352C39.3793 23.5536 39.2871 22.6334 37.8953 22.6334C37.8679 22.6334 37.8406 22.6342 37.8124 22.6342C37.809 22.6351 37.8064 22.6351 37.803 22.6351C37.5706 22.6351 37.3988 22.4027 37.4168 22.1335C37.4313 21.9148 37.5868 21.7747 37.7944 21.7747C37.7987 21.7747 37.8021 21.7747 37.8064 21.7747C37.8346 21.7755 37.8636 21.7755 37.891 21.7755C39.2837 21.7755 39.4041 20.8673 39.3042 19.7514C39.2751 19.4413 39.1657 19.0149 39.757 18.8782Z" fill="#3D003A"/>
<path d="M39.6058 37.2369C39.1512 36.7414 39.3161 36.2202 39.4485 35.8007C39.54 35.5093 39.6211 35.2547 39.5289 35.0197C39.4152 34.9574 39.264 34.9326 39.0923 34.9035C38.6514 34.8309 38.049 34.7301 37.7363 33.833L37.6176 33.4921L37.9738 33.5527C38.2173 33.5929 38.4455 33.6134 38.6514 33.6134C39.7613 33.6134 40.3542 33.0349 40.5729 31.7371L40.6926 31.0279L40.9796 31.6884C41.312 32.4539 41.7529 32.7957 42.4074 32.7957C42.6218 32.7957 42.8611 32.7598 43.1396 32.6855C43.1943 32.6701 43.2507 32.6633 43.3079 32.6633C43.5924 32.6633 43.8505 32.8453 43.965 33.1281C44.1102 33.4869 44.0102 33.8432 43.6924 34.1064C43.4651 34.296 43.2327 34.4789 43.014 34.6523L42.8132 34.8121C42.8183 34.9659 42.9098 35.124 43.0063 35.2914C43.1738 35.5811 43.4267 36.0177 42.9593 36.4124C42.7927 36.5534 42.6167 36.6243 42.4356 36.6243C42.1416 36.6243 41.8973 36.4389 41.6811 36.2749C41.5504 36.1757 41.4257 36.0809 41.3077 36.0365C41.0702 36.1467 40.8985 36.3543 40.7174 36.5739C40.4944 36.843 40.2423 37.1489 39.8347 37.2933L39.7015 37.3412L39.6058 37.2369Z" fill="#C88BE4"/>
<path d="M40.602 30.2837L40.3619 31.702C40.1611 32.8922 39.6493 33.3997 38.6522 33.3997C38.4574 33.3997 38.2413 33.3792 38.0089 33.3408L37.2971 33.2211L37.5347 33.903C37.8893 34.9197 38.5916 35.0368 39.0572 35.1145C39.1657 35.1325 39.2708 35.1496 39.3511 35.176C39.3725 35.3179 39.3221 35.493 39.2443 35.7365C39.1034 36.1834 38.9103 36.7943 39.4485 37.3813L39.6399 37.5898L39.9065 37.4949C40.3696 37.33 40.6422 37.0011 40.8823 36.7097C41.0284 36.5328 41.1591 36.3739 41.3137 36.2757C41.3881 36.3201 41.4735 36.385 41.5521 36.4448C41.7828 36.62 42.0699 36.8379 42.4356 36.8379C42.6688 36.8379 42.891 36.7507 43.0977 36.5764C43.7009 36.0646 43.3566 35.4699 43.1917 35.1846C43.1353 35.0855 43.0764 34.9855 43.0465 34.9001L43.1353 34.8291C43.3583 34.6523 43.5959 34.4643 43.8291 34.2712C44.2179 33.95 44.3426 33.4928 44.1632 33.0494C44.0162 32.6846 43.6804 32.4496 43.3079 32.4496C43.2327 32.4496 43.1567 32.459 43.0841 32.4795C42.8243 32.5487 42.603 32.582 42.4074 32.582C42.0092 32.582 41.5504 32.4658 41.1753 31.6029L40.602 30.2837ZM40.784 31.7729C41.1821 32.6906 41.7401 33.0092 42.4074 33.0092C42.6551 33.0092 42.9192 32.9657 43.1943 32.8913C43.2319 32.8811 43.2703 32.8768 43.3079 32.8768C43.5019 32.8768 43.6847 33.005 43.7676 33.2083C43.8821 33.4929 43.7898 33.7492 43.5566 33.9423C43.2302 34.2123 42.8961 34.472 42.6064 34.7036C42.509 35.3025 43.3917 35.7664 42.8209 36.25C42.6842 36.3654 42.5569 36.4107 42.4356 36.4107C42.0289 36.4107 41.6922 35.898 41.2958 35.81C40.637 36.0544 40.455 36.8464 39.763 37.0925C39.0914 36.3594 40.0646 35.6007 39.698 34.8736C39.2187 34.5318 38.3421 34.9214 37.938 33.762C38.1934 33.8047 38.4318 33.8269 38.6522 33.8269C39.8561 33.8269 40.5465 33.1776 40.784 31.7729Z" fill="#3D003A"/>
<path d="M42.9815 7.53076C42.2202 7.53076 41.9588 7.04203 41.7486 6.64815C41.6717 6.50375 41.5974 6.36621 41.5059 6.26112C41.3803 6.3158 41.2676 6.41747 41.142 6.53196C40.9224 6.73275 40.6737 6.96001 40.273 6.99248L40.1457 7.00189L40.0773 6.89423C39.6707 6.26453 40.0022 5.81255 40.2688 5.44943C40.4174 5.24779 40.5584 5.05383 40.5763 4.84364C40.5763 4.84364 40.3901 4.59586 40.3081 4.49333C40.2636 4.43694 40.2072 4.38483 40.1517 4.331C39.9483 4.13705 39.6399 3.84312 39.8766 3.38516C40.0039 3.13738 40.2124 3.00752 40.4772 3.00752C40.6404 3.00752 40.801 3.05451 40.942 3.09638L41.0685 3.13226C41.1761 3.16045 41.2718 3.17498 41.3547 3.17498C41.6649 3.17498 41.7554 2.99043 41.9024 2.53759C41.9801 2.29579 42.0622 2.04631 42.2339 1.85919L42.3296 1.75579L42.462 1.80193C43.1139 2.03348 43.0943 2.52478 43.0806 2.88278C43.0746 3.03315 43.0687 3.17669 43.1063 3.28948C43.1729 3.31425 43.2524 3.32536 43.36 3.32536C43.4258 3.32536 43.4933 3.32108 43.5625 3.31766C43.6402 3.31253 43.7206 3.30827 43.8 3.30827C44.0179 3.30827 44.3033 3.33732 44.5741 3.5663L44.6314 3.61499L44.6459 3.69019C44.7843 4.44378 44.2119 4.6531 43.8334 4.79152C43.53 4.90259 43.3429 4.98035 43.3062 5.16405C43.2523 5.43746 43.2694 5.72624 43.2874 6.03298C43.3122 6.45847 43.3378 6.89679 43.19 7.38038L43.1438 7.52991L42.9815 7.53076Z" fill="#C88BE4"/>
<path d="M42.268 1.50713L42.0766 1.71389C41.8724 1.93603 41.7802 2.22056 41.699 2.47176C41.5469 2.93912 41.4957 2.96133 41.3547 2.96133C41.2897 2.96133 41.212 2.94938 41.1223 2.92631C41.0838 2.91606 41.0437 2.90408 41.0026 2.89212C40.8557 2.84769 40.6711 2.79302 40.4772 2.79302C40.1312 2.79302 39.8509 2.96903 39.686 3.28687C39.3767 3.88667 39.8005 4.29166 40.0038 4.48561C40.0526 4.5326 40.1021 4.57702 40.1406 4.62658C40.2149 4.71971 40.2867 4.81454 40.3499 4.89828C40.3123 5.02815 40.2106 5.16741 40.0961 5.32292C39.8236 5.69544 39.4117 6.25679 39.897 7.01038L40.0363 7.22484L40.2901 7.20519C40.7634 7.16845 41.0659 6.89161 41.2855 6.68997C41.3427 6.63871 41.3965 6.58916 41.4478 6.54815C41.4854 6.60967 41.5221 6.67888 41.5597 6.74894C41.7716 7.14539 42.092 7.74432 42.9815 7.74432H43.2976L43.3941 7.44271C43.5531 6.92323 43.5249 6.44306 43.5001 6.01927C43.483 5.72792 43.4676 5.45194 43.5155 5.20587C43.5309 5.12983 43.7308 5.05721 43.9068 4.99227C44.2981 4.84958 45.0269 4.58301 44.8561 3.6517L44.8278 3.50133L44.7117 3.40306C44.3844 3.12623 44.035 3.09463 43.8 3.09463C43.7163 3.09463 43.6325 3.09889 43.5497 3.10401C43.4856 3.10743 43.4215 3.11171 43.3591 3.11171C43.3343 3.11171 43.3121 3.11086 43.2916 3.11C43.2882 3.04336 43.2908 2.96731 43.2942 2.89127C43.3079 2.53925 43.3335 1.88393 42.5329 1.60112L42.268 1.50713ZM42.3911 2.00354C43.1848 2.28464 42.6927 2.98184 42.9422 3.44749C43.0712 3.52097 43.2122 3.53892 43.3591 3.53892C43.5018 3.53892 43.6505 3.52183 43.8 3.52183C44.0153 3.52183 44.2323 3.55686 44.4357 3.72945C44.6236 4.75303 43.2378 4.41127 43.0968 5.123C42.961 5.80824 43.2284 6.52423 42.9857 7.31712C42.9849 7.31712 42.9832 7.31712 42.9815 7.31712C42.0168 7.31712 42.0373 6.41145 41.5649 6.02098C41.0667 6.11753 40.8591 6.73184 40.2568 6.77969C39.7022 5.9193 40.8172 5.52542 40.7916 4.77439C40.7104 4.66759 40.5951 4.51208 40.4755 4.36085C40.267 4.09769 39.8509 3.89949 40.0662 3.48339C40.1696 3.28175 40.3174 3.22022 40.4772 3.22022C40.6558 3.22022 40.8497 3.29711 41.0146 3.33983C41.1436 3.37315 41.2564 3.38854 41.3547 3.38854C42.1322 3.38854 42.0032 2.42477 42.3911 2.00354Z" fill="#3D003A"/>
<path d="M23.6462 25.4759C23.2924 25.4759 23.1121 25.1862 22.9678 24.953C22.9242 24.8821 22.8789 24.8103 22.8336 24.7531C22.7448 24.8077 22.6533 24.8906 22.5636 24.9718C22.3748 25.1427 22.1603 25.3366 21.8861 25.3366C21.7263 25.3366 21.5699 25.2691 21.4213 25.1367C20.9753 24.7368 21.1889 24.2763 21.3444 23.9397C21.4367 23.7389 21.5246 23.5492 21.499 23.3894C21.4418 23.2621 21.2205 23.1613 20.9855 23.0553C20.6301 22.8947 20.1431 22.6751 20.3097 22.0651C20.4097 21.6977 20.6626 21.5114 21.0607 21.5114C21.1786 21.5114 21.3059 21.5259 21.4358 21.5422C21.5528 21.5559 21.6725 21.5712 21.7878 21.5712C21.9177 21.5712 22.0134 21.5516 22.0894 21.5089C22.1082 21.4867 22.1048 21.3337 22.1014 21.1987C22.0963 20.986 22.0911 20.7442 22.2612 20.5707C22.3714 20.4579 22.5277 20.4032 22.7388 20.4032C23.33 20.4041 23.4343 20.8655 23.5035 21.1714C23.559 21.4166 23.6051 21.5815 23.7376 21.6806L23.753 21.678C23.8538 21.6627 23.9913 21.6404 24.1298 21.6242C24.1844 21.6174 24.2408 21.6063 24.2981 21.596C24.4185 21.5747 24.5407 21.5542 24.6561 21.5542C24.9526 21.5542 25.1653 21.6909 25.2875 21.96C25.537 22.5145 25.079 22.7931 24.8338 22.9434L24.7108 23.0195C24.2562 23.3253 24.0605 23.4783 24.1896 23.8892C24.2126 23.9627 24.2434 24.0396 24.275 24.1182C24.4168 24.4711 24.6544 25.0598 23.9913 25.387C23.8692 25.4468 23.7564 25.4759 23.6462 25.4759Z" fill="#C88BE4"/>
<path d="M22.7405 20.1898H22.7388C22.4714 20.1898 22.2586 20.2675 22.1083 20.4213C21.8759 20.6597 21.8827 20.9741 21.8878 21.2031C21.8887 21.2475 21.8904 21.3056 21.8887 21.3509C21.8596 21.3552 21.8263 21.3577 21.7879 21.3577C21.6811 21.3577 21.57 21.3424 21.4615 21.3304C21.3231 21.3125 21.1872 21.2979 21.0608 21.2979C20.4294 21.2979 20.1918 21.6841 20.103 22.0088C19.8885 22.7949 20.5456 23.0905 20.8976 23.2503C21.0497 23.3186 21.2197 23.3955 21.288 23.4758C21.2769 23.5758 21.2103 23.7202 21.1505 23.8492C20.9881 24.2012 20.7156 24.7916 21.2786 25.2957C21.4675 25.4649 21.6717 25.5503 21.8861 25.5503C22.2424 25.5503 22.4996 25.3179 22.7064 25.13C22.732 25.1077 22.7576 25.0838 22.7841 25.0608C22.785 25.0625 22.7858 25.0642 22.7867 25.0659C22.9413 25.3145 23.1737 25.6896 23.6462 25.6896C23.788 25.6896 23.9359 25.652 24.0862 25.5785C24.9261 25.1641 24.6091 24.3755 24.4733 24.0397C24.4442 23.9663 24.4143 23.8945 24.393 23.8253C24.3169 23.5801 24.3614 23.5117 24.7954 23.2212C24.8655 23.1734 24.9048 23.1503 24.9441 23.1255C25.1807 22.9811 25.8096 22.5984 25.4815 21.8721C25.3268 21.5286 25.0329 21.3398 24.6553 21.3398C24.5143 21.3398 24.3793 21.3646 24.2597 21.3859C24.2067 21.3953 24.1546 21.4056 24.1042 21.4116C24.0025 21.4235 23.9025 21.4389 23.8154 21.4517C23.7752 21.3868 23.7479 21.2834 23.712 21.1245C23.6436 20.8212 23.5018 20.1906 22.7405 20.1898ZM22.7388 20.617C22.7397 20.617 22.7397 20.617 22.7405 20.617C23.5095 20.6178 23.0866 21.5842 23.6932 21.9037C23.7838 21.89 23.9692 21.8584 24.1554 21.8362C24.3178 21.8157 24.4938 21.767 24.6553 21.767C24.833 21.767 24.9928 21.826 25.0927 22.0481C25.2952 22.4967 24.8663 22.6582 24.5912 22.8427C24.1888 23.1144 23.7983 23.3545 23.9854 23.9526C24.117 24.3738 24.4938 24.9018 23.8974 25.1949C23.8017 25.2419 23.7188 25.2624 23.6462 25.2624C23.2643 25.2624 23.1566 24.7019 22.8789 24.4977C22.5116 24.6113 22.2373 25.1231 21.8861 25.1231C21.7862 25.1231 21.6802 25.0813 21.564 24.977C21.0155 24.4866 21.7998 23.9141 21.7101 23.3554C21.4717 22.765 20.308 22.8812 20.5157 22.1216C20.6028 21.8003 20.8096 21.7251 21.0608 21.7251C21.2846 21.7251 21.5444 21.785 21.7879 21.785C21.934 21.785 22.0732 21.7636 22.1954 21.6944C22.5158 21.4167 22.0092 20.617 22.7388 20.617Z" fill="#3D003A"/>
<path d="M27.5039 49.9267C27.1356 49.461 27.3134 49.0167 27.4561 48.6604C27.5552 48.4118 27.6415 48.1973 27.5663 47.9957C27.5329 47.9538 27.4167 47.9359 27.2305 47.912C26.9579 47.8786 26.5452 47.8282 26.4248 47.3079L26.4145 47.2626L26.4239 47.2182C26.5273 46.6919 26.946 46.6184 27.251 46.5654C27.4424 46.5321 27.6235 46.5013 27.7363 46.3817C27.7705 46.327 27.7013 46.1348 27.6398 45.9656C27.5526 45.723 27.4535 45.4478 27.5791 45.1992C27.6594 45.0411 27.8098 44.9318 28.0405 44.8634C28.137 44.8352 28.2284 44.8207 28.3139 44.8207C28.7701 44.8207 28.9581 45.2095 29.1085 45.5213C29.2033 45.7195 29.3016 45.9237 29.452 46.0314C29.4708 46.0041 29.557 45.9767 29.6408 45.9494C29.7604 45.9109 29.8962 45.8682 30.0406 45.8682C30.2748 45.8682 30.4636 45.981 30.6028 46.2031C30.9241 46.7175 30.5157 47.0387 30.3414 47.1755C30.3038 47.2054 30.2466 47.2515 30.2329 47.2694C30.2406 47.4617 30.3756 47.665 30.5054 47.8615C30.6849 48.1298 30.9292 48.4989 30.5772 48.9048C30.4217 49.0834 30.2483 49.1748 30.0646 49.1748C29.8159 49.1748 29.6134 49.0116 29.434 48.8672C29.3366 48.7894 29.2358 48.7083 29.1521 48.6741C28.9555 48.7809 28.8334 48.9757 28.6932 49.1996C28.4839 49.5328 28.2464 49.9104 27.7072 50.0035L27.5825 50.0258L27.5039 49.9267Z" fill="#C88BE4"/>
<path d="M28.3138 44.607C28.2079 44.607 28.0959 44.6249 27.9806 44.6583C27.6944 44.7429 27.4953 44.8924 27.3885 45.1026C27.221 45.4341 27.3466 45.7827 27.4389 46.0381C27.4645 46.1074 27.5021 46.2116 27.5166 46.2791C27.4423 46.315 27.3346 46.3338 27.2142 46.3551C26.9109 46.4081 26.347 46.5072 26.2145 47.1771L26.1966 47.2668L26.2171 47.3556C26.3709 48.0221 26.9339 48.0913 27.2039 48.1246C27.2586 48.1314 27.3329 48.1408 27.3808 48.152C27.3834 48.2579 27.3329 48.3938 27.2578 48.5809C27.1125 48.9449 26.8921 49.4959 27.3355 50.0581L27.4936 50.2581L27.7439 50.2136C28.377 50.1051 28.6641 49.6463 28.8743 49.3122C28.9828 49.1388 29.0665 49.0106 29.1622 48.9269C29.2092 48.9602 29.2613 49.0029 29.2998 49.0337C29.4963 49.1909 29.7398 49.3883 30.0645 49.3883C30.3131 49.3883 30.5395 49.2729 30.7378 49.0448C31.1974 48.5159 30.8634 48.0127 30.6839 47.7427C30.5899 47.6017 30.5054 47.4744 30.4738 47.3428C30.9599 46.9609 31.0642 46.5388 30.783 46.0894C30.5583 45.7297 30.2559 45.6545 30.0406 45.6545C29.8637 45.6545 29.7039 45.7049 29.5758 45.7459C29.551 45.7536 29.5202 45.7639 29.492 45.7716C29.4228 45.6819 29.3605 45.5537 29.3006 45.4289C29.1434 45.1009 28.9051 44.607 28.3138 44.607ZM28.3138 45.0342C28.8734 45.0342 28.8675 45.8758 29.328 46.2048C29.3562 46.2133 29.3852 46.2167 29.416 46.2167C29.6005 46.2167 29.827 46.0817 30.0406 46.0817C30.1773 46.0817 30.3089 46.1364 30.4216 46.3167C30.7506 46.843 30.0397 47.0105 30.0329 47.2121C30.0166 47.9187 30.8557 48.257 30.4157 48.7646C30.2918 48.9064 30.1756 48.9611 30.0645 48.9611C29.7364 48.9611 29.4493 48.4946 29.1306 48.4476C28.4744 48.721 28.4813 49.6532 27.6713 49.7933C27.1501 49.1345 28.0011 48.5552 27.767 47.9213C27.509 47.5222 26.7853 47.9178 26.6332 47.2591C26.7639 46.5995 27.5064 46.9327 27.8909 46.5286C28.1805 46.1065 27.2509 45.3187 28.1011 45.0675C28.1805 45.0453 28.2506 45.0342 28.3138 45.0342Z" fill="#3D003A"/>
<path d="M36.465 8.31259C36.4692 8.92435 36.3581 9.39343 35.9045 9.39343C35.2543 9.39429 35.1756 8.76886 35.0936 8.28013C35.0184 7.83328 35.2654 7.46673 35.7319 7.48638C36.3282 7.51031 36.4496 7.99475 36.465 8.31259Z" fill="#3D003A"/>
<path d="M22.0185 36.1852C22.033 36.5782 21.9194 36.8935 21.5238 36.867C20.8402 36.8226 20.8069 36.2219 20.7437 35.7409C20.6958 35.3752 20.8949 34.977 21.3256 35.0266C22.0202 35.1061 21.8707 35.7717 22.0185 36.1852Z" fill="#3D003A"/>
<path d="M34.4826 8.71664C34.2929 8.70041 34.2408 8.71151 34.2203 8.69101C33.7043 8.19545 33.4761 7.60931 33.7743 6.92493C33.8709 6.70534 34.1853 6.58232 34.3656 6.79165C34.8722 7.38376 34.8799 8.03568 34.4826 8.71664Z" fill="#3D003A"/>
<path d="M41.2889 16.2774C40.4952 15.5563 40.7583 14.8489 40.8045 14.2072C40.8216 13.9731 41.0796 13.8338 41.3428 13.9098C41.6153 13.9893 41.6751 14.214 41.6307 14.4661C41.5359 14.9941 41.4325 15.5213 41.2889 16.2774Z" fill="#3D003A"/>
<path d="M27.2826 18.3877C27.2681 18.7449 27.2903 19.1721 26.7887 19.1277C26.2684 19.0807 26.1778 18.5988 26.1069 18.1861C26.048 17.8435 26.2086 17.5504 26.5845 17.5359C27.1604 17.5137 27.245 17.9486 27.2826 18.3877Z" fill="#3D003A"/>
<path d="M27.9652 20.0282C27.6798 19.1012 27.4944 18.4484 28.1276 17.7598C28.9042 18.5134 28.7556 19.155 27.9652 20.0282Z" fill="#3D003A"/>
<path d="M24.2135 40.4349C23.8521 39.4498 23.9426 38.4689 24.2058 37.4923C24.5065 38.4774 24.6227 39.46 24.2135 40.4349Z" fill="#3D003A"/>
<path d="M33.8948 26.3287C34.1733 27.0447 34.1434 27.7649 33.9298 28.4886C33.0788 27.7829 33.6094 27.0541 33.8948 26.3287Z" fill="#3D003A"/>
<path d="M21.5281 38.4946C21.951 38.4895 22.0834 38.7373 22.0886 39.0885C22.0954 39.5011 22.0142 39.901 21.5272 39.9582C21.1556 40.0001 20.9548 39.7224 20.9667 39.373C20.9804 38.9834 21.0684 38.598 21.5281 38.4946Z" fill="#3D003A"/>
<path d="M23.9589 17.5359C23.2591 17.0164 22.9618 16.5123 23.1335 15.8339C23.1796 15.6519 23.4727 15.5485 23.6308 15.6861C24.1494 16.1389 24.1597 16.7157 23.9589 17.5359Z" fill="#3D003A"/>
</svg>
