<svg width="10%" height="10%" viewBox="0 0 75 71" fill="none" xmlns="http://www.w3.org/2000/svg">
<path d="M29.1295 45.7513C29.9383 45.7513 30.6017 46.4069 30.6017 47.2234C30.6017 48.0388 29.9383 48.6955 29.1295 48.6955C28.313 48.6955 27.6574 48.0388 27.6574 47.2234C27.6574 46.4069 28.313 45.7513 29.1295 45.7513ZM30.6017 33.8939C30.6017 34.7093 29.9383 35.366 29.1295 35.366C28.313 35.366 27.6574 34.7093 27.6574 33.8939C27.6574 33.084 28.313 32.4218 29.1295 32.4218C29.9383 32.4218 30.6017 33.084 30.6017 33.8939ZM29.1295 22.0431C28.313 22.0431 27.6574 21.3797 27.6574 20.5709C27.6574 19.7544 28.313 19.0988 29.1295 19.0988C29.9383 19.0988 30.6017 19.7544 30.6017 20.5709C30.6017 21.3797 29.9383 22.0431 29.1295 22.0431ZM45.9212 22.0431C45.1124 22.0431 44.4491 21.3797 44.4491 20.5709C44.4491 19.7544 45.1124 19.0988 45.9212 19.0988C46.7377 19.0988 47.3933 19.7544 47.3933 20.5709C47.3933 21.3797 46.7377 22.0431 45.9212 22.0431ZM47.3933 47.2234C47.3933 48.0388 46.7377 48.6955 45.9212 48.6955C45.1124 48.6955 44.4491 48.0388 44.4491 47.2234C44.4491 46.4069 45.1124 45.7513 45.9212 45.7513C46.7377 45.7513 47.3933 46.4069 47.3933 47.2234ZM45.9212 35.366C45.1124 35.366 44.4491 34.7093 44.4491 33.8939C44.4491 33.084 45.1124 32.4218 45.9212 32.4218C46.7377 32.4218 47.3933 33.084 47.3933 33.8939C47.3933 34.7093 46.7377 35.366 45.9212 35.366ZM62.7195 22.0431C61.9041 22.0431 61.2474 21.3797 61.2474 20.5709C61.2474 19.7544 61.9041 19.0988 62.7195 19.0988C63.5283 19.0988 64.1916 19.7544 64.1916 20.5709C64.1916 21.3797 63.5283 22.0431 62.7195 22.0431ZM64.1916 47.2234C64.1916 48.0388 63.5283 48.6955 62.7195 48.6955C61.9041 48.6955 61.2474 48.0388 61.2474 47.2234C61.2474 46.4069 61.9041 45.7513 62.7195 45.7513C63.5283 45.7513 64.1916 46.4069 64.1916 47.2234ZM62.7195 35.366C61.9041 35.366 61.2474 34.7093 61.2474 33.8939C61.2474 33.084 61.9041 32.4218 62.7195 32.4218C63.5283 32.4218 64.1916 33.084 64.1916 33.8939C64.1916 34.7093 63.5283 35.366 62.7195 35.366ZM12.3313 45.7513C13.1467 45.7513 13.8034 46.4069 13.8034 47.2234C13.8034 48.0388 13.1467 48.6955 12.3313 48.6955C11.5225 48.6955 10.8591 48.0388 10.8591 47.2234C10.8591 46.4069 11.5225 45.7513 12.3313 45.7513ZM10.8591 20.5709C10.8591 19.7544 11.5225 19.0988 12.3313 19.0988C13.1467 19.0988 13.8034 19.7544 13.8034 20.5709C13.8034 21.3797 13.1467 22.0431 12.3313 22.0431C11.5225 22.0431 10.8591 21.3797 10.8591 20.5709ZM12.3313 32.4218C13.1467 32.4218 13.8034 33.084 13.8034 33.8939C13.8034 34.7093 13.1467 35.366 12.3313 35.366C11.5225 35.366 10.8591 34.7093 10.8591 33.8939C10.8591 33.084 11.5225 32.4218 12.3313 32.4218ZM64.1916 12.5L10.1595 12.5H3.05176e-05V50.0431C3.05176e-05 54.5763 3.51946 58.3084 7.96558 58.6357V60.0351H8.84048L10.1595 70.0634H14.0943L15.4066 60.0351H16.2881V58.6654H60.0011V60.0351H60.8838L62.195 70.0634H66.131L67.4499 60.0351H68.3237V58.4395C72.1429 57.5569 75 54.1245 75 50.0431V12.5L64.1916 12.5Z" fill="#004757"/>
<path d="M75 11H0C0 0 9 0 9 0H66C66 0 75 0 75 11Z" fill="#4F4A57"/>
</svg>
