<svg width="75" height="76" viewBox="0 0 75 76" fill="none" xmlns="http://www.w3.org/2000/svg">
<path d="M29.1295 50.7513C29.9383 50.7513 30.6017 51.4069 30.6017 52.2234C30.6017 53.0388 29.9383 53.6955 29.1295 53.6955C28.313 53.6955 27.6574 53.0388 27.6574 52.2234C27.6574 51.4069 28.313 50.7513 29.1295 50.7513ZM29.1295 13.7135C28.313 13.7135 27.6574 13.0579 27.6574 12.2414C27.6574 11.4326 28.313 10.7692 29.1295 10.7692C29.9383 10.7692 30.6017 11.4326 30.6017 12.2414C30.6017 13.0579 29.9383 13.7135 29.1295 13.7135ZM30.6017 38.8938C30.6017 39.7092 29.9383 40.366 29.1295 40.366C28.313 40.366 27.6574 39.7092 27.6574 38.8938C27.6574 38.0839 28.313 37.4217 29.1295 37.4217C29.9383 37.4217 30.6017 38.0839 30.6017 38.8938ZM29.1295 27.043C28.313 27.043 27.6574 26.3797 27.6574 25.5709C27.6574 24.7544 28.313 24.0988 29.1295 24.0988C29.9383 24.0988 30.6017 24.7544 30.6017 25.5709C30.6017 26.3797 29.9383 27.043 29.1295 27.043ZM45.9212 13.7135C45.1124 13.7135 44.4491 13.0579 44.4491 12.2414C44.4491 11.4326 45.1124 10.7692 45.9212 10.7692C46.7377 10.7692 47.3933 11.4326 47.3933 12.2414C47.3933 13.0579 46.7377 13.7135 45.9212 13.7135ZM45.9212 27.043C45.1124 27.043 44.4491 26.3797 44.4491 25.5709C44.4491 24.7544 45.1124 24.0988 45.9212 24.0988C46.7377 24.0988 47.3933 24.7544 47.3933 25.5709C47.3933 26.3797 46.7377 27.043 45.9212 27.043ZM47.3933 52.2234C47.3933 53.0388 46.7377 53.6955 45.9212 53.6955C45.1124 53.6955 44.4491 53.0388 44.4491 52.2234C44.4491 51.4069 45.1124 50.7513 45.9212 50.7513C46.7377 50.7513 47.3933 51.4069 47.3933 52.2234ZM45.9212 40.366C45.1124 40.366 44.4491 39.7092 44.4491 38.8938C44.4491 38.0839 45.1124 37.4217 45.9212 37.4217C46.7377 37.4217 47.3933 38.0839 47.3933 38.8938C47.3933 39.7092 46.7377 40.366 45.9212 40.366ZM62.7195 13.7135C61.9041 13.7135 61.2473 13.0579 61.2473 12.2414C61.2473 11.4326 61.9041 10.7692 62.7195 10.7692C63.5283 10.7692 64.1916 11.4326 64.1916 12.2414C64.1916 13.0579 63.5283 13.7135 62.7195 13.7135ZM62.7195 27.043C61.9041 27.043 61.2473 26.3797 61.2473 25.5709C61.2473 24.7544 61.9041 24.0988 62.7195 24.0988C63.5283 24.0988 64.1916 24.7544 64.1916 25.5709C64.1916 26.3797 63.5283 27.043 62.7195 27.043ZM64.1916 52.2234C64.1916 53.0388 63.5283 53.6955 62.7195 53.6955C61.9041 53.6955 61.2473 53.0388 61.2473 52.2234C61.2473 51.4069 61.9041 50.7513 62.7195 50.7513C63.5283 50.7513 64.1916 51.4069 64.1916 52.2234ZM62.7195 40.366C61.9041 40.366 61.2473 39.7092 61.2473 38.8938C61.2473 38.0839 61.9041 37.4217 62.7195 37.4217C63.5283 37.4217 64.1916 38.0839 64.1916 38.8938C64.1916 39.7092 63.5283 40.366 62.7195 40.366ZM12.3312 13.7135C11.5225 13.7135 10.8591 13.0579 10.8591 12.2414C10.8591 11.4326 11.5225 10.7692 12.3312 10.7692C13.1466 10.7692 13.8034 11.4326 13.8034 12.2414C13.8034 13.0579 13.1466 13.7135 12.3312 13.7135ZM12.3312 50.7513C13.1466 50.7513 13.8034 51.4069 13.8034 52.2234C13.8034 53.0388 13.1466 53.6955 12.3312 53.6955C11.5225 53.6955 10.8591 53.0388 10.8591 52.2234C10.8591 51.4069 11.5225 50.7513 12.3312 50.7513ZM10.8591 25.5709C10.8591 24.7544 11.5225 24.0988 12.3312 24.0988C13.1466 24.0988 13.8034 24.7544 13.8034 25.5709C13.8034 26.3797 13.1466 27.043 12.3312 27.043C11.5225 27.043 10.8591 26.3797 10.8591 25.5709ZM12.3312 37.4217C13.1466 37.4217 13.8034 38.0839 13.8034 38.8938C13.8034 39.7092 13.1466 40.366 12.3312 40.366C11.5225 40.366 10.8591 39.7092 10.8591 38.8938C10.8591 38.0839 11.5225 37.4217 12.3312 37.4217ZM66.3789 0.799355H8.62114C3.8698 0.799355 0 4.66919 0 9.42825V55.0431C0 59.5763 3.51943 63.3084 7.96555 63.6356V65.035H8.84045L10.1594 75.0633H14.0943L15.4066 65.035H16.2881V63.6654H60.0011V65.035H60.8837L62.195 75.0633H66.1309L67.4499 65.035H68.3237V63.4395C72.1428 62.5569 75 59.1245 75 55.0431V9.42825C75 4.66919 71.1302 0.799355 66.3789 0.799355Z" fill="#004757"/>
</svg>
