<svg width="220" height="96" viewBox="0 0 220 96" fill="none" xmlns="http://www.w3.org/2000/svg">
<path d="M182.038 51.048H37.334C37.0047 51.048 36.7327 51.3293 36.7327 51.6493V54.62C36.7887 55.712 36.8287 56.844 36.8367 58.0093C36.9407 58.1693 37.126 58.2733 37.334 58.2733H182.038C182.247 58.2733 182.431 58.1693 182.537 58.0093C182.545 56.844 182.585 55.712 182.641 54.62V51.6493C182.641 51.3293 182.367 51.048 182.038 51.048Z" fill="#4F4A57"/>
<path d="M133.487 44.8095C133.086 44.8095 132.717 44.6735 132.427 44.4402L128.229 48.6388H138.739L134.547 44.4482C134.258 44.6735 133.881 44.8095 133.487 44.8095Z" fill="#004757"
/>
<path d="M85.8847 44.8095C85.4834 44.8095 85.122 44.6735 84.8327 44.4402L80.634 48.6388H91.1433L86.9447 44.4402C86.6554 44.6735 86.286 44.8095 85.8847 44.8095Z" fill="#004757"
/>
<path d="M109.682 44.8095C109.281 44.8095 108.919 44.6735 108.63 44.4402L104.431 48.6388H114.941L110.742 44.4402C110.445 44.6735 110.083 44.8095 109.682 44.8095Z" fill="#004757"
/>
<path d="M131.786 43.0988C131.786 42.6975 131.922 42.3362 132.147 42.0482L122.641 32.5415C122.351 32.7668 121.982 32.9028 121.588 32.9028C121.187 32.9028 120.826 32.7668 120.529 32.5415L111.023 42.0482C111.255 42.3362 111.393 42.6975 111.393 43.0988C111.393 43.5015 111.255 43.8614 111.023 44.1588L115.503 48.6388H127.667L132.147 44.1588C131.922 43.8614 131.786 43.5015 131.786 43.0988Z" fill="#004757"
/>
<path d="M107.98 43.0988C107.98 42.6975 108.116 42.3362 108.35 42.0482L98.8351 32.5335C98.5458 32.7668 98.1845 32.9028 97.7831 32.9028C97.3818 32.9028 97.0205 32.7668 96.7312 32.5415L87.2258 42.0482C87.4498 42.3362 87.5872 42.6975 87.5872 43.0988C87.5872 43.5015 87.4498 43.8614 87.2258 44.1588L91.7058 48.6388H103.87L108.35 44.1588C108.116 43.8614 107.98 43.5015 107.98 43.0988Z" fill="#004757"
/>
<path d="M96.4511 30.1494L86.9365 20.6428C86.6471 20.8681 86.2858 21.0041 85.8845 21.0041C85.4831 21.0041 85.1218 20.8681 84.8324 20.6428L75.3271 30.1494C75.5511 30.4374 75.6884 30.7987 75.6884 31.2001C75.6884 31.6014 75.5511 31.9627 75.3191 32.2521L84.8324 41.7667C85.1218 41.5334 85.4831 41.3974 85.8845 41.3974C86.2858 41.3974 86.6551 41.5334 86.9445 41.7667L96.4511 32.2601C96.2178 31.9707 96.0818 31.6014 96.0818 31.2001C96.0818 30.7987 96.2178 30.4374 96.4511 30.1494Z" fill="#004757"
/>
<path d="M120.248 30.1494L110.742 20.6428C110.445 20.8681 110.083 21.0041 109.682 21.0041C109.28 21.0041 108.919 20.8681 108.63 20.6428L99.1245 30.1494C99.3485 30.4374 99.4858 30.7987 99.4858 31.2001C99.4858 31.6014 99.3485 31.9627 99.1165 32.2521L108.63 41.7667C108.919 41.5334 109.28 41.3974 109.682 41.3974C110.083 41.3974 110.445 41.5334 110.742 41.7667L120.248 32.2601C120.015 31.9707 119.879 31.6014 119.879 31.2001C119.879 30.7987 120.015 30.4374 120.248 30.1494Z" fill="#004757"
/>
<path d="M144.046 30.1494L134.539 20.6428C134.25 20.8681 133.881 21.0041 133.487 21.0041C133.086 21.0041 132.717 20.8681 132.427 20.6428L122.922 30.1494C123.155 30.4374 123.291 30.7987 123.291 31.2001C123.291 31.6014 123.155 31.9707 122.922 32.2601L132.427 41.7667C132.717 41.5334 133.086 41.3974 133.487 41.3974C133.881 41.3974 134.258 41.5334 134.547 41.7587L144.054 32.2521C143.821 31.9627 143.685 31.6014 143.685 31.2001C143.685 30.7987 143.821 30.4374 144.046 30.1494Z" fill="#004757"
/>
<path d="M155.583 43.0988C155.583 42.6975 155.719 42.3362 155.945 42.0482L146.438 32.5415C146.15 32.7668 145.779 32.9028 145.386 32.9028C144.993 32.9028 144.623 32.7668 144.335 32.5415L134.821 42.0482C135.054 42.3362 135.19 42.6975 135.19 43.0988C135.19 43.5015 135.054 43.8614 134.821 44.1588L139.301 48.6388H151.465L155.945 44.1588C155.719 43.8614 155.583 43.5015 155.583 43.0988Z" fill="#004757"
/>
<path d="M157.286 44.8095C156.891 44.8095 156.514 44.6735 156.226 44.4482L152.034 48.6388H162.537L158.345 44.4482C158.057 44.6735 157.679 44.8095 157.286 44.8095Z" fill="#004757"
/>
<path d="M183.629 45.9335L182.143 44.4482C181.854 44.6735 181.477 44.8095 181.083 44.8095C180.69 44.8095 180.313 44.6735 180.023 44.4482L175.831 48.6388H182.038H183.21C183.331 47.7081 183.467 46.8081 183.629 45.9335Z" fill="#004757"
/>
<path d="M182.785 43.0988C182.785 43.5014 182.649 43.8614 182.423 44.1587L183.725 45.4601C184.182 43.0667 184.809 40.8921 185.547 38.9241L182.423 42.0481C182.649 42.3361 182.785 42.6974 182.785 43.0988Z" fill="#004757"
/>
<path d="M179.381 43.0988C179.381 42.6975 179.517 42.3362 179.742 42.0482L170.235 32.5415C169.947 32.7668 169.578 32.9028 169.185 32.9028C168.79 32.9028 168.421 32.7668 168.133 32.5415L158.626 42.0482C158.851 42.3362 158.987 42.6975 158.987 43.0988C158.987 43.5015 158.851 43.8614 158.626 44.1588L163.106 48.6388H175.262L179.742 44.1588C179.517 43.8614 179.381 43.5015 179.381 43.0988Z" fill="#004757"
/>
<path d="M167.843 30.1494L158.337 20.6427C158.049 20.8681 157.679 21.004 157.286 21.004C156.891 21.004 156.522 20.8681 156.234 20.6427L146.727 30.1494C146.953 30.4374 147.089 30.7987 147.089 31.2C147.089 31.6013 146.953 31.9707 146.719 32.26L156.226 41.7587C156.514 41.5333 156.891 41.3973 157.286 41.3973C157.679 41.3973 158.057 41.5333 158.345 41.7587L167.851 32.252C167.618 31.9627 167.482 31.6013 167.482 31.2C167.482 30.7987 167.618 30.4374 167.843 30.1494Z" fill="#004757"
/>
<path d="M134.821 20.3614L144.327 29.8681C144.615 29.6347 144.993 29.4987 145.386 29.4987C145.779 29.4987 146.157 29.6347 146.446 29.8601L155.945 20.3534C155.719 20.0641 155.583 19.7027 155.583 19.3014C155.583 18.9001 155.719 18.5387 155.945 18.2494L146.438 8.74405C146.15 8.96805 145.779 9.10538 145.386 9.10538C144.993 9.10538 144.623 8.96805 144.335 8.74405L134.821 18.2494C135.054 18.5387 135.19 18.9001 135.19 19.3014C135.19 19.7027 135.054 20.072 134.821 20.3614Z" fill="#004757"
/>
<path d="M122.633 8.74405C122.343 8.96805 121.982 9.10538 121.58 9.10538C121.179 9.10538 120.818 8.96805 120.521 8.74405L111.023 18.2494C111.255 18.5387 111.393 18.9001 111.393 19.3014C111.393 19.7027 111.255 20.072 111.023 20.3614L120.529 29.8681C120.826 29.6347 121.187 29.4987 121.588 29.4987C121.982 29.4987 122.359 29.6347 122.649 29.8601L132.147 20.3534C131.922 20.0641 131.786 19.7027 131.786 19.3014C131.786 18.9001 131.922 18.5387 132.147 18.2494" fill="#004757"
/>
<path d="M87.2258 20.3534L96.7312 29.8681C97.0205 29.6347 97.3818 29.4987 97.7831 29.4987C98.1845 29.4987 98.5538 29.6347 98.8431 29.8681L108.35 20.3614C108.116 20.072 107.98 19.7027 107.98 19.3014C107.98 18.9001 108.116 18.5387 108.35 18.2494L98.8351 8.73604C98.5458 8.96804 98.1845 9.10538 97.7831 9.10538C97.3818 9.10538 97.0205 8.96805 96.7312 8.74405L87.2258 18.2494C87.4498 18.5387 87.5872 18.9001 87.5872 19.3014C87.5872 19.7027 87.4498 20.0641 87.2258 20.3534Z" fill="#004757"
/>
<path d="M97.7833 5.70137C98.1846 5.70137 98.546 5.83738 98.8353 6.07071L104.865 0.0400455C100.055 0.105379 95.5113 0.281353 91.2153 0.546686L96.7313 6.0627C97.0207 5.83737 97.382 5.70137 97.7833 5.70137Z" fill="#004757"
/>
<path d="M99.4858 7.40268C99.4858 7.80401 99.3485 8.16536 99.1245 8.45469L108.63 17.9613C108.919 17.736 109.281 17.6 109.682 17.6C110.083 17.6 110.445 17.736 110.742 17.9613L120.241 8.45469C120.007 8.16536 119.871 7.80401 119.871 7.40268C119.871 7.00134 120.007 6.64006 120.241 6.35072L113.922 0.0320384C112.533 0.00803842 111.119 7.17409e-06 109.682 7.17409e-06C108.245 7.17409e-06 106.833 0.00803842 105.443 0.0320384L99.1245 6.35072C99.3485 6.64006 99.4858 7.00134 99.4858 7.40268Z" fill="#004757"
/>
<path d="M121.581 5.70157C121.982 5.70157 122.343 5.83756 122.633 6.0629L128.141 0.554889C123.845 0.281556 119.301 0.105574 114.499 0.0402408L120.521 6.0629C120.818 5.83756 121.179 5.70157 121.581 5.70157Z" fill="#004757"
/>
<path d="M123.283 7.40272C123.283 7.80406 123.147 8.16541 122.914 8.45474L132.427 17.9694C132.716 17.7361 133.086 17.6001 133.487 17.6001C133.881 17.6001 134.25 17.736 134.539 17.9614L144.046 8.45474C143.821 8.16541 143.685 7.80406 143.685 7.40272C143.685 7.00139 143.821 6.64011 144.046 6.35077L139.202 1.51744C139.202 1.51744 132.437 0.828108 128.678 0.586775L122.914 6.35077C123.147 6.64011 123.283 7.00139 123.283 7.40272Z" fill="#004757"
/>
<path d="M145.386 5.70157C145.779 5.70157 146.15 5.83756 146.438 6.0629L149.61 2.89089C146.535 2.39356 143.275 1.9522 139.83 1.56687L144.335 6.0629C144.623 5.83756 144.992 5.70157 145.386 5.70157Z" fill="#004757"
/>
<path d="M147.089 7.40267C147.089 7.80401 146.953 8.16536 146.727 8.45469L156.234 17.9613C156.522 17.736 156.891 17.6 157.286 17.6C157.679 17.6 158.049 17.736 158.337 17.9613L167.843 8.45469C167.618 8.16536 167.482 7.80401 167.482 7.40267C167.482 7.20267 167.514 7.01735 167.578 6.84135C162.537 5.39601 156.739 4.06272 150.099 2.97872L146.727 6.35072C146.953 6.64006 147.089 7.00134 147.089 7.40267Z" fill="#004757"
/>
<path d="M180.031 17.9613C180.321 17.736 180.69 17.6 181.083 17.6C181.477 17.6 181.846 17.736 182.134 17.9613L186.029 14.0667C182.11 11.996 177.117 9.828 170.83 7.828C170.774 8.06133 170.662 8.27069 170.525 8.45469L180.031 17.9613Z" fill="#004757"
/>
<path d="M158.626 20.3534L168.125 29.86C168.414 29.6347 168.79 29.4987 169.185 29.4987C169.578 29.4987 169.955 29.6347 170.243 29.86L179.742 20.3534C179.517 20.064 179.381 19.7027 179.381 19.3014C179.381 18.9 179.517 18.5387 179.742 18.2493L170.235 8.744C169.947 8.968 169.578 9.10533 169.185 9.10533C168.79 9.10533 168.421 8.968 168.133 8.744L158.626 18.2493C158.851 18.5387 158.987 18.9 158.987 19.3014C158.987 19.7027 158.851 20.064 158.626 20.3534Z" fill="#004757"
/>
<path d="M182.785 19.3015C182.785 19.7028 182.649 20.0642 182.423 20.3535L190.99 28.9281C193.665 25.4841 196.346 23.5735 197.927 22.6415C196.45 21.0361 192.982 17.8002 186.398 14.2762L182.423 18.2495C182.649 18.5388 182.785 18.9002 182.785 19.3015Z" fill="#004757"
/>
<path d="M182.134 20.6427C181.846 20.8681 181.477 21.004 181.083 21.004C180.69 21.004 180.321 20.8681 180.031 20.6427L170.525 30.1494C170.75 30.4374 170.886 30.7987 170.886 31.2C170.886 31.6013 170.75 31.9627 170.517 32.252L180.023 41.7587C180.313 41.5333 180.69 41.3973 181.083 41.3973C181.477 41.3973 181.854 41.5333 182.143 41.7587L185.901 38.0014C186.254 37.1174 186.631 36.2747 187.025 35.472C188.181 32.9907 189.457 30.936 190.742 29.2414L182.134 20.6427Z" fill="#004757"
/>
<path d="M62.0873 44.8095C61.686 44.8095 61.3246 44.6735 61.0353 44.4402L56.8367 48.6388H67.338L63.1393 44.4402C62.85 44.6735 62.4887 44.8095 62.0873 44.8095Z" fill="#004757"
/>
<path d="M84.1818 43.0988C84.1818 42.6975 84.3191 42.3362 84.5431 42.0482L75.0378 32.5415C74.7484 32.7668 74.3871 32.9028 73.9858 32.9028C73.5844 32.9028 73.2231 32.7668 72.9338 32.5415L63.4285 42.0482C63.6525 42.3362 63.7898 42.6975 63.7898 43.0988C63.7898 43.5015 63.6525 43.8614 63.4285 44.1588L67.9085 48.6388H80.0631L84.5431 44.1588C84.3191 43.8614 84.1818 43.5015 84.1818 43.0988Z" fill="#004757"
/>
<path d="M72.6448 30.1494L63.1394 20.6428C62.8501 20.8681 62.4888 21.0041 62.0874 21.0041C61.6861 21.0041 61.3247 20.8681 61.0354 20.6428L51.5288 30.1494C51.7541 30.4374 51.8901 30.7987 51.8901 31.2001C51.8901 31.6014 51.7541 31.9707 51.5208 32.2601L61.0354 41.7667C61.3247 41.5334 61.6861 41.3974 62.0874 41.3974C62.4888 41.3974 62.8501 41.5334 63.1394 41.7667L72.6527 32.2521C72.4207 31.9627 72.2834 31.6014 72.2834 31.2001C72.2834 30.7987 72.4208 30.4374 72.6448 30.1494Z" fill="#004757"
/>
<path d="M75.3274 6.35077C75.5514 6.6401 75.6887 7.00139 75.6887 7.40272C75.6887 7.80406 75.5514 8.16541 75.3274 8.45474L84.8327 17.9614C85.1221 17.736 85.4834 17.6001 85.8847 17.6001C86.2861 17.6001 86.6474 17.7361 86.9368 17.9694L96.4514 8.45474C96.2181 8.16541 96.0821 7.80406 96.0821 7.40272C96.0821 7.00139 96.2181 6.6401 96.4514 6.35077L90.6781 0.578765C86.9208 0.818765 80.1154 1.5414 80.1154 1.5414L75.3274 6.35077Z" fill="#004757"
/>
<path d="M73.9859 5.70157C74.3872 5.70157 74.7486 5.83756 75.0379 6.0629L79.5579 1.54154C76.0979 1.92688 72.8219 2.36953 69.7393 2.86687L72.9339 6.0629C73.2233 5.83756 73.5845 5.70157 73.9859 5.70157Z" fill="#004757"
/>
<path d="M63.4285 20.3534L72.9338 29.8681C73.2231 29.6347 73.5844 29.4987 73.9858 29.4987C74.3871 29.4987 74.7484 29.6347 75.0378 29.8681L84.5511 20.3534C84.3191 20.0641 84.1818 19.7027 84.1818 19.3014C84.1818 18.9001 84.3191 18.5387 84.5431 18.2494L75.0378 8.74405C74.7484 8.96805 74.3871 9.10538 73.9858 9.10538C73.5844 9.10538 73.2231 8.96805 72.9338 8.74405L63.4285 18.2494C63.6525 18.5387 63.7898 18.9001 63.7898 19.3014C63.7898 19.7027 63.6525 20.0641 63.4285 20.3534Z" fill="#004757"
/>
<path d="M51.5286 8.45469L61.0352 17.9613C61.3245 17.736 61.6859 17.6 62.0872 17.6C62.4886 17.6 62.8499 17.736 63.1392 17.9613L72.6446 8.45469C72.4206 8.16536 72.2832 7.80401 72.2832 7.40267C72.2832 7.00134 72.4206 6.64006 72.6446 6.35072L69.2405 2.94669C62.6005 4.03069 56.8126 5.34802 51.7699 6.78536C51.8499 6.97736 51.8899 7.18667 51.8899 7.40267C51.8899 7.80401 51.7539 8.16536 51.5286 8.45469Z" fill="#004757"
/>
<path d="M36.5873 19.3015C36.5873 18.9002 36.7247 18.5389 36.9487 18.2495L32.918 14.2202C26.3593 17.7522 22.922 21.0042 21.4526 22.6255C23.0593 23.5335 25.7567 25.4122 28.446 28.8642L36.9487 20.3536C36.7247 20.0642 36.5873 19.7029 36.5873 19.3015Z" fill="#004757"
/>
<path d="M38.2898 17.6001C38.6912 17.6001 39.0525 17.736 39.3418 17.9614L48.8471 8.45474C48.6951 8.25474 48.5832 8.02139 48.5258 7.76405C42.2152 9.76405 37.2138 11.9387 33.2952 14.0267L37.2298 17.9694C37.5191 17.7361 37.8885 17.6001 38.2898 17.6001Z" fill="#004757"
/>
<path d="M39.6218 20.3614L49.1285 29.8681C49.4179 29.6347 49.7872 29.4987 50.1885 29.4987C50.5898 29.4987 50.9512 29.6347 51.2405 29.8681L60.7459 20.3534C60.5219 20.0641 60.3845 19.7027 60.3845 19.3014C60.3845 18.9001 60.5219 18.5387 60.7459 18.2494L51.2405 8.74405C50.9512 8.96805 50.5898 9.10538 50.1885 9.10538C49.7872 9.10538 49.4259 8.96805 49.1365 8.74405L39.6218 18.2494C39.8552 18.5387 39.9912 18.9001 39.9912 19.3014C39.9912 19.7027 39.8552 20.072 39.6218 20.3614Z" fill="#004757"
/>
<path d="M60.3845 43.0988C60.3845 42.6975 60.5219 42.3362 60.7459 42.0482L51.2405 32.5415C50.9512 32.7668 50.5898 32.9028 50.1885 32.9028C49.7872 32.9028 49.4259 32.7668 49.1365 32.5415L39.6218 42.0482C39.8552 42.3362 39.9912 42.6975 39.9912 43.0988C39.9912 43.5015 39.8552 43.8614 39.6218 44.1588L44.1018 48.6388H56.2658L60.7459 44.1588C60.5219 43.8614 60.3845 43.5015 60.3845 43.0988Z" fill="#004757"
/>
<path d="M36.9485 42.0482L33.8098 38.9082C34.5085 40.8828 35.1178 43.0748 35.6005 45.5082L36.9485 44.1588C36.7245 43.8615 36.5872 43.5015 36.5872 43.0989C36.5872 42.6975 36.7245 42.3362 36.9485 42.0482Z" fill="#004757"
/>
<path d="M200.609 23.9747L200.345 24.1027C200.337 24.1027 200.311 24.1187 200.263 24.1427C199.549 24.5361 194.202 27.636 190.083 34.9254C190.083 34.9334 190.075 34.9414 190.067 34.9494C188.035 38.7641 186.27 43.8054 185.442 50.4054L185.426 50.5094L185.378 51.0481H185.37C185.226 52.2441 185.122 53.4881 185.049 54.7814V57.672C185.049 57.944 184.937 59.0281 184.937 59.3174C184.937 59.8961 184.711 60.4414 184.302 60.8508C183.901 61.2601 183.363 61.4854 182.785 61.4854H36.5873C36.01 61.4854 35.4713 61.2601 35.062 60.8508C34.6527 60.4414 34.4353 59.8961 34.4353 59.3174C34.4353 59.0281 34.3233 57.944 34.3233 57.672V54.7654C33.0633 32.0921 21.4207 25.2907 19.406 24.2801C19.39 24.2641 19.374 24.2641 19.366 24.2561C19.35 24.2481 19.326 24.2401 19.31 24.2321C19.1886 24.1747 19.1167 24.1427 19.1087 24.1427L19.0046 24.0947C13.2793 21.092 8.31797 20.7147 4.44063 22.9947C2.0233 24.416 0.385982 26.9054 0.056649 29.6667C-0.240684 32.244 0.641941 34.7254 2.48061 36.492C4.20727 38.1454 6.54333 38.9801 9.43399 38.9801C10.9753 38.9801 12.2527 38.7321 12.878 38.5868C13.6327 38.4108 14.4446 38.6587 14.9499 39.2134C22.2246 47.1934 22.8899 66.7121 22.9139 72.9427H28.7753H42.2806H177.093H190.597H196.458C196.482 66.7121 197.149 47.1934 204.423 39.2134C204.929 38.6587 205.739 38.4108 206.494 38.5868C207.121 38.7321 208.397 38.9801 209.938 38.9801C212.813 38.9801 215.141 38.1534 216.867 36.5161C218.714 34.7574 219.605 32.2681 219.309 29.6827C218.987 26.9054 217.341 24.4001 214.917 22.9868C211.311 20.8761 206.775 21.0601 201.573 23.4934L201.339 23.6054L200.609 23.9747Z" fill="#522E4C"/>
<path d="M185.426 50.5095C185.41 50.6869 185.386 50.8629 185.37 51.0482H185.378L185.426 50.5095Z" fill="#EBB0B0"/>
<path d="M177.093 74.5482V78.7641H178.514L180.649 95.0375H187.041L189.175 78.7641H190.596V74.5482H177.093Z" fill="#4B3B3E"/>
<path d="M28.7754 74.5482V78.7641H30.1967L32.3327 95.0375H38.7234L40.8594 78.7641H42.2807V74.5482H28.7754Z" fill="#4B3B3E"/>
<path d="M38.2899 41.3974C38.6913 41.3974 39.0526 41.5334 39.3419 41.7667L48.8552 32.2521C48.6232 31.9627 48.4859 31.6014 48.4859 31.2001C48.4859 30.7987 48.6232 30.4374 48.8472 30.1494L39.3419 20.6428C39.0526 20.8681 38.6913 21.0041 38.2899 21.0041C37.8886 21.0041 37.5272 20.8681 37.2379 20.6348L28.6873 29.1854C30.3979 31.4414 32.0912 34.3321 33.4806 38.0174L37.2299 41.7667C37.5192 41.5334 37.8886 41.3974 38.2899 41.3974Z" fill="#004757"
/>
<path d="M43.5407 48.6388L39.3421 44.4402C39.0528 44.6735 38.6914 44.8095 38.2901 44.8095C37.8888 44.8095 37.5194 44.6735 37.2301 44.4402L35.6887 45.9815C35.7447 46.2228 35.7847 46.4642 35.8247 46.7122C35.8807 46.9935 35.9288 47.2908 35.9781 47.5801C36.0341 47.9241 36.0901 48.2775 36.1381 48.6388H37.3341H43.5407Z" fill="#004757"
/>
<path d="M35.5925 45.516C35.6245 45.668 35.6565 45.8213 35.6885 45.9813C35.6645 45.8213 35.6325 45.66 35.6005 45.508L35.5925 45.516Z" fill="#EBB0B0"/>
</svg>
