<?xml version="1.0" standalone="no"?>
<!DOCTYPE svg PUBLIC "-//W3C//DTD SVG 20010904//EN"
 "http://www.w3.org/TR/2001/REC-SVG-20010904/DTD/svg10.dtd">
<svg version="1.0" xmlns="http://www.w3.org/2000/svg"
 width="1363.000000pt" height="1363.000000pt" viewBox="0 0 1363.000000 1363.000000"
 preserveAspectRatio="xMidYMid meet">
<metadata>
Created by potrace 1.14, written by Peter Selinger 2001-2017
</metadata>
<g transform="translate(0.000000,1363.000000) scale(0.100000,-0.100000)"
fill="#000000" stroke="none">
<path d="M4090 10891 c-171 -53 -295 -257 -389 -643 -77 -316 -111 -638 -111
-1058 l0 -257 -102 -58 c-154 -85 -396 -250 -548 -371 -279 -223 -573 -553
-724 -811 -6 -10 47 -13 248 -13 l254 0 68 83 c94 115 289 306 419 411 195
156 453 319 735 463 l95 48 -3 40 c-1 22 -7 101 -12 175 -37 511 29 1122 159
1471 38 100 36 99 132 52 259 -124 641 -419 922 -714 147 -152 226 -250 324
-399 42 -63 76 -116 77 -117 0 0 51 12 111 28 357 95 543 114 1045 106 398 -6
477 -15 797 -86 101 -23 189 -41 197 -41 8 0 41 47 75 105 68 117 198 261 336
372 116 94 338 239 508 333 234 130 613 291 650 277 29 -11 78 -276 96 -522
28 -371 2 -738 -69 -958 -16 -52 -30 -98 -30 -104 0 -5 48 -31 108 -58 547
-248 931 -502 1249 -822 l142 -143 255 0 c141 0 256 2 256 6 0 10 -82 126
-150 210 -300 374 -692 682 -1234 969 l-128 68 6 44 c31 228 32 757 2 998 -41
328 -99 518 -201 660 -59 84 -103 100 -249 92 -166 -8 -407 -92 -736 -256
-415 -208 -724 -423 -964 -671 l-118 -123 -117 21 c-239 44 -288 47 -791 47
-502 0 -528 -2 -753 -46 l-108 -22 -16 23 c-80 114 -293 343 -468 503 -522
477 -1025 755 -1245 688z"/>
<path d="M9031 10020 c-153 -55 -381 -238 -681 -546 -156 -161 -208 -230 -235
-312 -53 -161 81 -354 327 -476 139 -68 234 -95 359 -103 169 -10 286 43 317
143 53 170 134 1153 103 1247 -22 67 -89 83 -190 47z"/>
<path d="M4337 10009 c-54 -41 -60 -89 -65 -483 -7 -625 14 -735 153 -804 202
-100 602 -10 794 178 71 70 95 120 95 195 0 69 -20 114 -92 210 -58 76 -524
543 -617 617 -128 103 -214 131 -268 87z"/>
<path d="M5164 8096 c-135 -31 -274 -135 -336 -252 -57 -106 -75 -264 -42
-375 38 -130 141 -257 254 -314 232 -118 521 -38 660 181 96 152 98 375 3 527
-34 57 -108 132 -164 167 -102 66 -256 93 -375 66z"/>
<path d="M8255 8098 c-135 -25 -277 -131 -342 -254 -179 -338 62 -744 442
-744 264 0 482 204 501 469 25 329 -274 591 -601 529z"/>
<path d="M1530 7601 c-82 -17 -130 -77 -130 -163 0 -63 25 -108 79 -145 l34
-23 776 0 776 0 40 23 c114 64 109 230 -8 295 -30 16 -88 17 -782 19 -412 0
-766 -2 -785 -6z"/>
<path d="M6325 7596 c-90 -22 -145 -63 -145 -107 0 -36 55 -80 212 -168 178
-100 249 -149 272 -183 20 -31 27 -640 7 -675 -18 -34 -53 -48 -227 -92 l-159
-39 -2034 -7 -2033 -7 6 51 c3 28 9 74 12 101 l6 50 -215 0 -214 0 -6 -67 c-4
-38 -7 -90 -7 -118 0 -27 -4 -55 -8 -62 -4 -6 -61 -23 -127 -38 -345 -78 -612
-212 -807 -406 -191 -190 -298 -421 -329 -714 l-12 -115 -31 0 c-51 0 -145
-28 -210 -63 -125 -66 -237 -214 -266 -351 -7 -36 -10 -212 -8 -552 3 -489 3
-500 25 -559 83 -218 284 -354 524 -355 l66 0 6 -78 c8 -119 65 -213 162 -265
40 -22 45 -22 605 -22 l565 0 43 23 c101 54 160 147 169 269 l6 73 4642 0
4642 0 5 -82 c3 -51 11 -96 22 -116 26 -50 84 -110 135 -140 l46 -27 553 -3
554 -3 51 24 c75 34 112 69 146 139 26 52 31 73 31 135 l0 73 73 0 c163 1 289
51 397 160 77 76 125 162 145 257 21 97 21 947 1 1044 -16 76 -59 165 -108
226 -63 80 -191 161 -281 178 l-35 7 -7 76 c-42 464 -281 804 -715 1016 -174
86 -374 145 -641 190 l-36 6 -9 118 -9 117 -213 3 -213 2 7 -79 7 -79 -354 -6
c-195 -3 -1108 -8 -2029 -11 l-1675 -6 -155 41 c-134 34 -159 44 -182 70 l-28
30 0 316 c0 258 3 320 15 343 26 52 97 101 262 182 171 85 213 118 213 169 0
36 -43 74 -113 97 -46 15 -106 17 -497 20 -332 1 -458 -1 -495 -11z m5375
-1729 c464 -71 752 -202 907 -410 84 -114 137 -248 152 -389 l7 -68 -5913 0
-5913 0 6 48 c14 124 37 212 79 297 147 305 526 486 1115 534 58 5 2207 8
4775 7 4406 -2 4676 -3 4785 -19z m1444 -1302 c62 -30 61 -19 64 -480 3 -458
1 -480 -51 -519 -27 -20 -42 -21 -303 -24 l-274 -3 0 -185 0 -184 -350 0 -350
0 0 185 0 185 -5070 0 -5070 0 0 -185 0 -185 -350 0 -350 0 0 184 0 185 -272
3 c-299 3 -304 4 -333 64 -13 27 -15 100 -15 459 0 465 0 468 58 499 24 13
775 15 6330 16 5583 0 6308 -2 6336 -15z"/>
<path d="M12911 4444 c-52 -52 -61 -102 -61 -324 0 -149 -3 -181 -16 -194 -8
-9 -16 -17 -17 -18 -1 -2 -2745 -5 -6097 -8 -5317 -4 -6100 -7 -6134 -20 -102
-38 -135 -116 -73 -174 56 -53 89 -58 349 -63 297 -6 275 8 280 -186 3 -138 3
-139 31 -163 28 -24 31 -24 225 -24 139 1 202 4 213 13 32 25 39 56 39 182 0
120 1 127 25 150 l24 25 5114 0 c5019 0 5115 0 5138 -19 23 -18 24 -27 29
-166 7 -197 -10 -185 250 -185 260 0 243 -12 250 184 4 122 8 148 23 163 16
16 46 19 287 23 264 5 270 5 292 28 23 22 23 26 26 324 2 197 -1 320 -9 356
-14 69 -58 120 -111 129 -34 5 -42 2 -77 -33z"/>
<path d="M10555 7601 c-85 -21 -119 -75 -113 -179 3 -58 8 -76 28 -97 54 -58
13 -55 867 -55 769 0 789 1 821 20 55 34 74 74 70 155 -4 77 -20 109 -73 142
-28 17 -72 18 -800 20 -423 1 -784 -2 -800 -6z"/>
<path d="M1946 7112 c-14 -42 -26 -81 -26 -85 0 -4 100 -6 222 -5 l222 3 24
60 c13 33 27 70 32 83 l10 22 -229 0 -229 0 -26 -78z"/>
<path d="M11164 7173 c4 -10 19 -48 34 -85 l27 -68 223 0 223 0 -6 23 c-4 12
-16 50 -28 85 l-22 62 -228 0 c-214 0 -229 -1 -223 -17z"/>
<path d="M6391 7101 c-41 -43 -51 -89 -65 -285 -12 -166 -15 -181 -36 -198
-12 -10 -34 -18 -49 -19 -14 0 -89 -7 -166 -14 -77 -7 -862 -43 -1744 -79
-882 -36 -1606 -68 -1609 -71 -3 -3 809 -5 1804 -5 l1810 0 119 40 c74 24 127
48 138 61 15 19 17 47 17 263 0 275 1 270 -80 311 -66 34 -105 33 -139 -4z"/>
<path d="M7095 7103 c-28 -14 -55 -33 -62 -42 -9 -12 -12 -85 -13 -267 0 -298
-12 -274 157 -328 l113 -36 1811 0 c997 0 1810 2 1807 5 -2 3 -681 32 -1509
65 -827 32 -1625 69 -1774 80 -249 20 -272 23 -292 43 -19 20 -22 39 -32 192
-12 190 -27 251 -73 290 -38 32 -71 32 -133 -2z"/>
<path d="M643 6919 c-111 -55 -110 -245 1 -298 42 -21 51 -21 1237 -21 l1194
0 39 23 c51 29 76 77 76 147 0 70 -25 118 -76 147 l-39 23 -1195 0 c-1190 0
-1195 0 -1237 -21z"/>
<path d="M10520 6922 c-56 -28 -80 -73 -80 -152 0 -79 24 -124 80 -152 33 -17
112 -18 1228 -18 1316 0 1235 -4 1287 64 24 32 28 46 28 106 0 60 -4 74 -28
106 -52 68 29 64 -1287 64 -1116 0 -1195 -1 -1228 -18z"/>
</g>
</svg>
