<svg width="33" height="20" viewBox="0 0 33 20" fill="none" xmlns="http://www.w3.org/2000/svg">
<path d="M1.75003 14.4039C1.75003 13.7039 1.70003 11.5039 5.92203 11.5039H26.979C31.201 11.5039 31.151 13.8039 31.151 14.4039" fill="#D4EEFF"/>
<path d="M1.75003 14.4039C1.75003 13.7039 1.70003 11.5039 5.92203 11.5039H26.979C31.201 11.5039 31.151 13.8039 31.151 14.4039" stroke="#004757" stroke-miterlimit="10"/>
<path d="M31.437 14.6541H1.263C0.842 14.6541 0.5 14.9961 0.5 15.4171V17.3911C0.5 17.8121 0.842 18.1541 1.263 18.1541H1.985L1.997 18.8571C1.999 18.9661 2.088 19.0541 2.198 19.0541H4.467C4.596 19.0541 4.699 18.9491 4.697 18.8201L4.686 18.1541H28.001V18.8321C28.001 18.9541 28.1 19.0541 28.223 19.0541H30.493C30.608 19.0541 30.702 18.9611 30.702 18.8451V18.1541H31.439C31.86 18.1541 32.202 17.8121 32.202 17.3911V15.4171C32.202 14.9961 31.86 14.6541 31.439 14.6541H31.437Z" fill="#FFCD4C" stroke="#004757" stroke-miterlimit="10"/>
<path d="M27.8 11.404C27.8 8.40897 26.137 6.41997 23.05 5.00397C23.3 4.20397 23.3 1.60397 22.75 0.903969C22.318 0.752969 19.25 2.10397 18.45 3.50397C17.519 3.29197 17.219 3.25397 16.2 3.25397C15.055 3.25397 14.781 3.23897 13.75 3.50397C12.85 2.10397 10.6 0.403969 9.94999 0.503969C9.54899 0.565969 8.94999 2.60397 9.14999 5.00397C6.27499 6.45597 4.79999 8.63397 4.79999 11.504L27.8 11.404Z" fill="#FFCD4C" stroke="#004757" stroke-miterlimit="10"/>
<path d="M16.95 10.8041L17.75 11.0041H14.95L15.75 10.8041C16.15 10.7041 16.039 10.5711 16.05 10.0041C16.055 9.71705 16.05 9.70405 16.05 9.30405C16.05 9.00405 16.15 9.00405 15.05 8.40405C14.611 8.16505 14.95 7.90405 15.45 7.90405H17.15C17.75 7.90405 18.15 8.20405 17.45 8.50405C16.504 8.91005 16.65 9.10405 16.65 9.30405V10.0041C16.65 10.5711 16.55 10.7041 16.95 10.8041Z" fill="#004757"/>
<path d="M12.65 8.6041C13.0366 8.6041 13.35 8.2907 13.35 7.9041C13.35 7.5175 13.0366 7.2041 12.65 7.2041C12.2634 7.2041 11.95 7.5175 11.95 7.9041C11.95 8.2907 12.2634 8.6041 12.65 8.6041Z" fill="#004757" stroke="#004757" stroke-miterlimit="10"/>
<path d="M20.05 8.6041C20.4366 8.6041 20.75 8.2907 20.75 7.9041C20.75 7.5175 20.4366 7.2041 20.05 7.2041C19.6634 7.2041 19.35 7.5175 19.35 7.9041C19.35 8.2907 19.6634 8.6041 20.05 8.6041Z" fill="#004757" stroke="#004757" stroke-miterlimit="10"/>
<path d="M31 9.40405H25.4C25.1515 9.40405 24.95 9.60552 24.95 9.85405V9.95405C24.95 10.2026 25.1515 10.4041 25.4 10.4041H31C31.2485 10.4041 31.45 10.2026 31.45 9.95405V9.85405C31.45 9.60552 31.2485 9.40405 31 9.40405Z" fill="#004757" stroke="white" stroke-width="0.2" stroke-miterlimit="10"/>
<path d="M29 7.80396H25.4C25.1515 7.80396 24.95 8.00543 24.95 8.25396V8.35396C24.95 8.60248 25.1515 8.80396 25.4 8.80396H29C29.2485 8.80396 29.45 8.60248 29.45 8.35396V8.25396C29.45 8.00543 29.2485 7.80396 29 7.80396Z" fill="#004757" stroke="white" stroke-width="0.2" stroke-miterlimit="10"/>
<path d="M7.3 9.40405H1.7C1.45147 9.40405 1.25 9.60552 1.25 9.85405V9.95405C1.25 10.2026 1.45147 10.4041 1.7 10.4041H7.3C7.54853 10.4041 7.75 10.2026 7.75 9.95405V9.85405C7.75 9.60552 7.54853 9.40405 7.3 9.40405Z" fill="#004757" stroke="white" stroke-width="0.2" stroke-miterlimit="10"/>
<path d="M7.25 7.80396H3.75C3.47386 7.80396 3.25 8.02781 3.25 8.30396C3.25 8.5801 3.47386 8.80396 3.75 8.80396H7.25C7.52614 8.80396 7.75 8.5801 7.75 8.30396C7.75 8.02781 7.52614 7.80396 7.25 7.80396Z" fill="#004757" stroke="white" stroke-width="0.2" stroke-miterlimit="10"/>
<path d="M10.45 5.10393C10.269 4.93393 10.26 4.52093 10.25 3.70393C10.237 2.70393 10.235 2.20093 10.45 2.10393C10.72 1.98193 11.15 2.40793 11.75 3.00393C12.458 3.70693 12.813 4.05793 12.75 4.40393C12.621 5.11293 11.001 5.62293 10.45 5.10393Z" fill="#FBB03B"/>
<path d="M19.45 4.40401C19.412 4.03701 19.708 3.74301 20.25 3.20401C20.529 2.92701 21.625 1.83701 22.05 2.10401C22.165 2.17601 22.198 2.32801 22.05 3.90401C21.933 5.15401 21.89 5.29501 21.75 5.40401C21.157 5.86701 19.533 5.20701 19.45 4.40401Z" fill="#FBB03B"/>
<path d="M30.85 15.9041V16.3041C30.85 16.8041 30.95 16.8041 30.15 16.8041H1.75002C1.15002 16.8041 1.15002 17.1041 1.15002 17.1041C1.15002 17.1041 1.15002 17.4041 1.75002 17.4041H2.55002C2.66002 17.4041 2.75002 17.4941 2.75002 17.6041V18.1041C2.75002 18.2141 2.84002 18.3041 2.95002 18.3041H3.75002C3.86002 18.3041 3.95002 18.2141 3.95002 18.1041V17.6041C3.95002 17.4941 4.04002 17.4041 4.15002 17.4041H28.55C28.66 17.4041 28.75 17.4941 28.75 17.6041V18.1041C28.75 18.2141 28.84 18.3041 28.95 18.3041H29.75C29.86 18.3041 29.95 18.2141 29.95 18.1041V17.6041C29.95 17.4941 30.04 17.4041 30.15 17.4041H31.25C31.36 17.4041 31.45 17.3141 31.45 17.2041V15.9041C31.45 15.4041 31.15 15.4041 31.15 15.4041C31.15 15.4041 30.85 15.4041 30.85 15.9041Z" fill="#FBB03B"/>
<path d="M15.655 9.0961L15.764 9.1561C15.817 9.1851 15.85 9.2411 15.85 9.3021V10.3831C15.85 10.4551 15.804 10.5191 15.736 10.5411L15.276 10.6941C15.259 10.7001 15.241 10.7031 15.223 10.7031H6.46698L13.95 10.4031L15.009 10.3151C15.091 10.3081 15.155 10.2431 15.162 10.1621C15.162 10.1621 15.21 9.4931 15.203 9.4711C15.251 9.1031 15.404 8.9561 15.656 9.0951L15.655 9.0961Z" fill="#FBB03B"/>
<path d="M17.045 9.0961L16.936 9.1561C16.883 9.1851 16.85 9.2411 16.85 9.3021V10.3831C16.85 10.4551 16.896 10.5191 16.964 10.5411L17.424 10.6941C17.441 10.7001 17.459 10.7031 17.477 10.7031H26.233L18.75 10.4031L17.691 10.3151C17.609 10.3081 17.545 10.2431 17.538 10.1621C17.538 10.1621 17.49 9.4931 17.497 9.4711C17.449 9.1031 17.296 8.9561 17.044 9.0951L17.045 9.0961Z" fill="#FBB03B"/>
<path d="M28.166 12.4079C28.166 12.4079 30.15 12.8039 30.25 13.9039H3.24997C2.99597 13.9039 2.89797 13.6059 3.06097 13.4109C3.11797 13.3429 3.20097 13.3039 3.28997 13.3029L27.503 13.2049C27.668 13.2049 27.801 13.0709 27.801 12.9059V12.6989C27.801 12.5069 27.98 12.3639 28.167 12.4079H28.166Z" fill="#BDCCD4"/>
<path d="M3.55 12.704C3.818 12.57 4.555 12.452 4.85 12.404C5.058 12.37 5.382 12.404 5.593 12.404H27.55L5.65 12.604C4.85 12.604 5.05 13.004 4.673 13.005L3.355 13.085C3.251 13.091 3.2 12.961 3.279 12.894C3.367 12.82 3.467 12.744 3.55 12.703V12.704Z" fill="white"/>
<path d="M1.25 15.7411C1.25 15.5551 1.401 15.4041 1.587 15.4041H29.95L2.398 15.9001C2.26 15.9021 2.15 16.0151 2.15 16.1521C2.15 16.2911 2.037 16.4041 1.898 16.4041H1.561C1.389 16.4041 1.25 16.2651 1.25 16.0931V15.7411Z" fill="white"/>
<path d="M18.95 4.10388C18.856 3.89188 19.091 3.59788 19.25 3.40388C19.351 3.27988 19.539 3.07188 20.05 2.70388C20.212 2.58688 20.382 2.46488 20.65 2.30388C21.521 1.77888 22.341 1.48388 22.35 1.50388C22.357 1.51888 21.916 1.69588 21.25 2.10388C20.916 2.30788 20.723 2.44988 20.65 2.50388C20.45 2.65288 20.211 2.83188 19.95 3.10388C19.772 3.28888 19.617 3.45088 19.45 3.70388C19.268 3.97988 19.166 4.22188 19.05 4.20388C18.99 4.19388 18.957 4.11988 18.95 4.10388Z" fill="white"/>
<path d="M9.75001 5.10396C9.73401 5.05796 9.68001 3.98296 9.75001 3.00396C9.78001 2.58196 9.83301 2.29096 9.85001 2.20396C9.95001 1.67596 10.115 1.19596 10.15 1.20396C10.192 1.21396 9.98901 1.91996 9.95001 3.00396C9.93701 3.36996 9.93001 3.55296 9.95001 3.80396C10.001 4.44896 10.166 5.12196 10.05 5.20396C9.99901 5.23996 9.90801 5.22996 9.85001 5.20396C9.83801 5.19896 9.77301 5.16896 9.75001 5.10396Z" fill="white"/>
<path d="M7.593 7.12696C7.561 7.33796 7.633 7.66296 7.95 7.78896C8.164 7.87396 8.486 7.85996 8.671 7.71796C8.961 7.49596 8.627 7.18096 8.848 6.63296C9.038 6.15996 9.517 5.82296 9.451 5.77496C9.431 5.75996 9.376 5.78296 9.356 5.79296C8.757 6.08996 7.648 6.76996 7.594 7.12796L7.593 7.12696Z" fill="white"/>
</svg>
