<svg width="493" height="158" viewBox="0 0 493 158" fill="none" xmlns="http://www.w3.org/2000/svg">
<path fill-rule="evenodd" clip-rule="evenodd" d="M453.59 58.0137H435.402L408.95 14.1969V50.5715L408.862 50.485V58.0497H394.896L380.842 58.0153L375.883 45.6143H346.946L341.987 58.8377H326.28C319.673 58.8377 311.399 57.1865 306.443 52.2266C301.483 47.2678 299.004 40.6541 299.004 29.9093C299.004 21.6419 300.656 13.3708 306.443 6.75964C310.573 1.79599 318.015 0.147339 327.108 0.147339L340.338 0.146973V12.5458H327.108C322.148 12.5458 319.673 13.3708 316.359 15.8547C313.883 18.3333 312.229 23.2917 312.229 29.0782C312.229 35.6927 313.057 39.8256 316.359 43.1304C318.845 45.6143 322.148 46.4417 326.28 46.4417H332.068L351.079 0.975502H359.349H371.747L394.896 56.3603V53.5355V34.8643V33.213V0.975502H415.562L439.53 41.4807V0.975502H453.589L453.59 58.0137ZM361.828 10.0644L351.906 33.2117H370.923L361.828 10.0644Z" fill="#0288D1"/>
<path fill-rule="evenodd" clip-rule="evenodd" d="M148.548 58.0138H140.278H135.32V53.0565V12.5445L134.493 14.4407L115.262 58.0138H114.653H110.233H103.078L83.2403 12.5445V58.0138H55.1349L49.3484 45.6128H21.2382L15.4502 58.0138H0.919495L25.3749 0.145813H46.0403L69.1868 55.5306V0.145813H74.1456H91.088L91.4781 0.974663L101.938 23.6745L109.428 40.6824L109.692 39.8256L126.226 0.146935H148.546L148.548 58.0138ZM26.1994 33.2118H44.388L35.2956 10.0644L26.1994 33.2118Z" fill="#0288D1"/>
<path fill-rule="evenodd" clip-rule="evenodd" d="M205.59 12.5452H173.348V23.2915H204.761V34.8633H173.348V46.44H205.59V58.8374H159.297V0.145874H205.59V12.5452Z" fill="#0288D1"/>
<path fill-rule="evenodd" clip-rule="evenodd" d="M264.551 33.8611C264.864 34.1915 265.206 34.5732 265.434 34.8907C267.019 36.9679 268.298 40.0539 268.364 44.5814L268.377 44.8157L268.384 44.9465C268.403 45.4016 268.413 45.9379 268.413 46.4409V58.0142H256.015V51.3974C256.015 48.091 256.015 43.13 253.53 39.8249C252.751 39.0436 251.959 38.5289 251.099 38.1626C249.86 37.3602 247.511 37.3474 243.614 37.3474L228.731 37.347V58.0142H214.679V0.14624H246.096C253.53 0.14624 258.493 0.146236 262.629 2.62636C266.679 5.05886 269.126 9.09275 269.219 15.4802C269.026 24.2766 263.38 29.105 259.32 30.7321C259.32 30.7321 262.078 31.2876 264.551 33.8611ZM252.763 24.2467C253.004 23.9886 253.223 23.6964 253.409 23.3612C254.158 22.1759 255.016 20.0416 254.554 17.128C254.535 16.8604 254.486 16.6132 254.429 16.3732L254.4 16.1816C253.988 14.7654 252.93 13.8965 251.882 13.3673C250.226 12.5434 247.745 12.5438 245.266 12.5438L228.731 12.5434V25.7721H245.266C247.745 25.7721 250.226 25.7721 251.882 24.9437C252.131 24.8189 252.352 24.6462 252.565 24.4523C252.565 24.4523 252.652 24.3752 252.763 24.2467Z" fill="#0288D1"/>
<path fill-rule="evenodd" clip-rule="evenodd" d="M292.389 58.0137H278.334V0.145874H292.389V58.0137Z" fill="#0288D1"/>
<path fill-rule="evenodd" clip-rule="evenodd" d="M241.963 135.722H225.428V138.197V143.159V148.12V157.213H198.255L182.44 139.025L181.614 138.197L163.428 157.213H110.522V99.3474H164.257L178.937 115.425L182.022 118.792L182.44 118.358L199.803 99.3474H243.615C252.118 99.3474 261.639 101.446 265.247 110.097C265.681 111.81 265.933 113.715 265.933 115.879C265.932 132.412 254.358 135.722 241.963 135.722ZM251.883 118.358C251.056 113.399 247.745 110.915 242.783 110.915H225.428V125.795H243.615C248.575 125.796 251.883 123.318 251.883 118.358ZM211.376 152.25V105.13L189.882 128.278L211.376 152.25ZM122.922 110.915V121.664H153.51V133.24H122.922V145.643H156.815L172.522 128.279L157.643 110.915L122.922 110.915Z" fill="#0288D1"/>
<path fill-rule="evenodd" clip-rule="evenodd" d="M324.629 134.893C326.28 137.369 327.108 140.681 327.108 145.643V157.213H313.057V149.776C313.057 146.463 313.057 140.681 310.572 138.198C308.924 135.722 305.613 135.722 300.656 135.722H285.777V157.213H271.726V98.5197H303.137C309.745 98.5197 315.532 98.52 319.673 100.998C323.803 103.48 327.108 107.614 327.108 114.227C327.108 123.317 321.324 128.279 317.189 129.935C321.324 131.581 323.803 133.24 324.629 134.893ZM309.745 124.146C311.399 123.317 312.229 120.835 312.229 118.36C313.057 115.056 311.399 113.4 309.745 112.571C308.097 111.745 305.613 111.745 303.137 111.745L286.6 111.745V124.973H303.135C305.612 124.973 308.095 124.973 309.745 124.146Z" fill="#0288D1"/>
<path fill-rule="evenodd" clip-rule="evenodd" d="M381.671 110.916H349.428V121.663H380.842V133.238H349.428V144.814H381.671V157.212H335.379V98.519H381.671V110.916Z" fill="#0288D1"/>
<path fill-rule="evenodd" clip-rule="evenodd" d="M416.388 157.213H389.933V144.815H416.388C418.864 144.815 420.52 144.815 422.177 143.159C423.005 142.332 423.826 140.681 423.826 139.025C423.826 137.369 423.005 135.722 422.177 134.894C421.347 134.068 419.69 133.24 417.213 133.24C403.985 132.413 388.279 133.24 388.279 115.056C388.279 106.787 393.239 97.6927 408.12 97.6927H435.399V111.745H409.774C407.297 111.745 405.639 111.745 403.985 112.572C402.337 113.4 402.336 115.056 402.336 116.708C402.337 119.189 403.985 120.015 405.639 120.836C407.297 121.664 408.948 121.664 410.599 121.664H418.039C425.48 121.664 430.44 123.318 433.745 126.625C436.227 129.107 437.88 133.24 437.88 139.025C437.88 151.422 430.44 157.213 416.388 157.213Z" fill="#0288D1"/>
<path fill-rule="evenodd" clip-rule="evenodd" d="M487.481 151.423C484.179 154.734 478.389 157.214 470.118 157.214H443.672V144.815H470.118C472.599 144.815 474.256 144.815 475.908 143.16C476.732 142.332 477.562 140.681 477.562 139.025C477.562 137.369 476.732 135.723 475.908 134.894C475.08 134.069 473.429 133.24 470.948 133.24C457.727 132.413 442.015 133.24 442.015 115.056C442.016 107.198 446.51 100.102 457.597 97.9938C458.922 97.8105 460.323 97.693 461.856 97.693H489.138V111.745H470.948H464.336H463.51C461.029 111.745 459.378 111.746 457.727 112.572C456.894 113.4 456.067 115.056 456.067 116.708C456.067 119.189 456.894 120.015 459.378 120.836C461.029 121.664 462.683 121.664 464.336 121.664H465.159H471.775C475.388 121.664 478.12 122.11 480.62 122.989C482.909 123.817 490.491 127.209 492.186 136.059C492.332 136.986 492.44 137.954 492.44 139.026C492.44 143.988 490.786 148.12 487.481 151.423Z" fill="#0288D1"/>
</svg>
